<svg width="136" height="62" viewBox="0 0 136 62" fill="none" xmlns="http://www.w3.org/2000/svg">
<path d="M0.0027413 58.7645C0.287277 58.5495 0.694479 58.4209 1.08179 58.4582C1.1717 58.4662 1.18852 58.6298 1.22893 58.6505C1.30408 58.6886 1.38289 58.4945 1.39696 58.4918C1.48846 58.4726 1.50633 58.7621 1.52097 58.7707C1.6851 58.8576 1.58134 58.544 1.69743 58.486C1.80349 58.4318 1.9372 58.4187 2.0343 58.4072C2.07813 58.401 2.12654 58.3917 2.17469 58.3777C2.23573 58.36 2.28924 58.5765 2.42226 58.4988C2.51774 58.4451 2.72397 58.0651 3.00847 58.2136C3.05702 58.3019 3.08939 58.4109 3.12971 58.5073C3.16231 58.0127 3.24555 57.9877 3.63687 57.8815C3.69903 57.8644 3.66381 57.6854 3.79238 57.6847C3.92154 57.6836 4.05802 57.9119 4.25559 57.794C4.32562 57.7516 4.27512 57.564 4.38268 57.4933C4.43478 57.459 4.4994 57.4263 4.57248 57.395C4.84723 57.2921 5.27311 57.1951 5.43159 57.0769C5.8113 56.7954 5.75973 56.3956 6.10946 56.1725C6.13658 56.1539 6.24439 56.3428 6.28661 56.3008C6.32944 56.2581 6.16214 56.0337 6.16569 56.0194C6.20905 55.8623 6.70516 55.8123 6.72714 55.7039C6.77381 55.4519 6.54243 55.5729 6.6865 55.275C6.72017 55.2054 6.77743 55.1413 6.85111 55.0777C7.03665 54.9489 7.35108 54.8356 7.4927 54.6636C7.70904 54.3958 7.26842 54.1046 7.86498 54.0549C8.16762 53.1626 8.41379 52.175 8.64062 51.1859C8.7438 51.2153 8.84689 51.2452 8.94991 51.2753C8.89818 51.1781 8.84549 51.0838 8.79436 50.9864C8.86875 51.0179 8.94337 51.0488 9.01697 51.0801C9.00071 51.0448 8.98532 51.0097 8.97086 50.9749C8.79478 50.6012 8.72464 50.3072 8.85778 49.9531C8.86056 49.9454 9.06885 49.9982 9.07528 49.9925C9.12919 49.9066 8.98046 49.7809 9.02903 49.7058C9.14672 49.5256 9.64368 49.2231 9.06137 49.3192C9.22621 48.8647 9.06344 48.2706 9.22145 47.7691C9.24721 47.6875 9.31289 47.6317 9.386 47.5893C9.50501 47.5299 9.64402 47.4984 9.66172 47.441C9.68985 47.3487 9.39613 47.3699 9.38805 47.3359C9.34247 47.1333 9.37539 46.8075 9.70163 46.7899C9.57446 46.7415 9.44573 46.6905 9.3175 46.6426C9.67736 46.688 9.55727 46.0457 9.57055 45.8764C9.57322 45.8458 9.73123 45.8468 9.73041 45.8233C9.71885 45.5623 9.47318 45.4909 9.39783 45.2644C9.37121 45.1852 9.64572 45.3159 9.53178 45.1098C9.52178 45.0921 9.27146 45.0933 9.28062 44.8511C9.29211 44.5419 9.24702 43.9986 9.30385 43.5586C9.31789 43.4492 9.33766 43.3484 9.36561 43.2602C9.37668 43.2239 9.64487 43.3458 9.58774 43.176C9.56739 43.1154 9.37302 43.1351 9.37682 42.985C9.3894 42.4061 9.62794 41.8025 9.44796 41.211C9.66634 41.2341 9.90986 41.4468 9.77522 41.1301C9.75287 41.0804 9.55745 41.1162 9.55032 41.0941C9.49485 40.9117 9.63431 40.7562 9.55782 40.5597C9.53475 40.5027 9.38138 40.4914 9.34422 40.4186C9.28882 40.3119 9.50676 40.2676 9.41145 40.1431C9.26112 39.9563 9.05364 39.935 9.45122 39.686C9.39991 38.6141 9.1655 37.6669 9.04977 36.5021C9.02482 36.2181 9.00956 35.934 9.00628 35.6493C8.83531 35.2681 8.65525 34.9219 8.55068 34.5204C8.51998 34.4022 8.79097 34.3378 8.67083 34.16C8.64442 34.1196 8.30282 33.8623 8.84909 33.7294C8.78775 33.6521 8.77742 33.5986 8.73607 33.5306C8.66391 33.5991 8.59102 33.6693 8.51747 33.7353C8.5565 33.4141 8.31928 33.1971 8.17962 32.9465C8.07687 32.7618 8.33862 32.8589 8.29284 32.7421C8.24762 32.6253 8.18449 32.5812 8.43846 32.376C8.36534 32.3641 8.31692 32.3495 8.28572 32.3316C8.16536 32.2495 8.29091 32.1226 8.26643 31.9241C8.26289 31.8974 8.11149 31.7603 8.11976 31.6269C8.12581 31.5311 8.32756 31.4778 8.27856 31.3374C8.27044 31.3147 7.98211 31.0371 7.95012 30.9427C7.89839 30.7951 8.14296 30.5394 8.14388 30.5117C8.15608 30.1012 7.88393 29.9779 8.28758 29.6661C8.02701 29.6348 7.85588 29.4314 7.85849 29.2649C7.85952 29.2007 7.90185 29.1127 7.94359 29.0219C8.02122 28.6192 8.14945 28.5203 7.77433 28.6286C7.90438 28.6292 7.95105 28.6856 7.99564 28.7602C7.97079 28.7428 7.92443 28.7433 7.88329 28.7064C7.84419 28.6726 7.81008 28.5737 7.68567 28.463C7.56707 28.3535 7.36112 28.2443 7.24667 28.2271C7.01263 28.1908 7.03744 28.5188 6.93058 28.5309C6.74461 28.5481 6.89957 28.3566 6.77892 28.3238C6.50728 28.2477 6.20565 28.1764 5.84213 28.0368C5.76305 28.0108 5.68289 27.9854 5.60057 27.96C5.66821 27.814 5.73632 27.6673 5.80595 27.5223C5.76227 27.5576 5.7183 27.5926 5.67401 27.6273C5.61125 27.5846 5.53949 27.5401 5.48554 27.4966C5.58587 28.4157 5.02734 27.1203 4.83712 26.9041C4.64099 26.7197 4.09404 26.6675 3.84291 26.528C3.78175 26.4945 3.93398 26.401 3.92121 26.3944C3.77026 26.3193 3.67103 26.3873 3.52925 26.2306C3.45495 26.148 3.52199 25.9143 3.44754 25.8393C3.37608 25.7674 3.30261 25.7003 3.22759 25.6372C2.60699 25.1148 1.93492 24.5261 1.52264 23.7824C1.44093 23.6362 1.61672 23.3945 1.56679 23.2729C1.49568 23.0985 1.25003 23.0721 1.17994 22.9053C1.17926 22.9037 1.1786 22.902 1.17796 22.9004C1.11331 22.7338 1.2669 22.4125 1.19417 22.3148C1.11986 22.2117 0.946163 22.488 0.942881 22.2529C0.942646 22.1462 1.17361 22.2617 1.14207 22.1411C1.04282 21.7721 0.694041 21.2607 0.860773 20.8233C0.808192 20.8487 0.762201 20.8805 0.712861 20.9104C0.670118 20.471 0.773746 20.0914 0.767776 19.6774C0.766067 19.5329 0.590133 19.2844 0.584909 19.1448C0.579672 19.0068 0.754389 18.9368 0.754866 18.8267C0.755471 18.7813 0.597309 18.8047 0.599353 18.7749C0.626442 18.3973 0.901947 18.1824 0.85317 17.7944C0.82182 17.546 0.789922 17.297 0.756788 17.0459C0.601918 15.8144 0.51425 14.5854 0.429235 13.3689C0.425237 13.3098 0.218294 13.2691 0.188068 13.1822C0.141307 13.0484 0.324455 13.043 0.331 13.0253C0.371993 12.9094 0.202228 12.9557 0.203311 12.7997C0.205607 12.4562 0.361647 11.9047 0.353482 11.5636C0.334338 10.778 0.185202 10.1125 0.119697 9.34296C0.114396 9.28787 0.358743 9.32979 0.364001 9.23344C0.366394 9.193 0.367815 9.15487 0.36839 9.11871C0.367979 9.10769 0.370636 9.07467 0.370664 9.06363C0.403207 8.4835 0.210187 8.29761 0.322272 7.51001C0.443767 6.66939 0.685163 5.10303 0.82882 4.0715C0.829387 4.07156 0.829953 4.07162 0.83052 4.07169C0.666906 3.92641 0.593084 3.77274 0.586371 3.62748L0.577884 3.72528C0.551232 3.54156 0.680369 3.33197 0.89227 3.14196C1.01408 3.35207 1.11379 3.56087 1.19109 3.75924L1.19626 3.69966C1.68945 5.50478 1.23425 7.08868 1.15374 8.91467C1.15116 8.9791 1.14922 9.04462 1.14785 9.11124C1.14784 9.11607 1.14668 9.13051 1.14686 9.13534C1.19083 11.2383 1.91289 13.4733 1.84268 15.5831C1.8362 15.7875 1.58004 15.875 1.63868 16.0482C1.64861 16.077 1.84543 15.9965 1.86806 16.0851C1.94176 16.3801 1.97586 16.6798 1.9911 16.9805C2.04286 17.9414 1.82145 18.932 1.97883 19.8408C2.03737 20.1624 2.26315 20.1928 2.35245 20.4589C2.24245 20.4241 2.12978 20.4046 2.0199 20.373C1.92037 21.0773 2.04972 21.7938 2.30782 22.4537C2.53398 23.0427 2.85393 23.5963 3.23325 24.1126C3.26918 24.162 3.10523 24.3045 3.14169 24.3616C3.21517 24.4771 3.47843 24.4139 3.56002 24.4891C3.66801 24.588 3.56335 24.7274 3.6708 24.8166C3.72375 24.8592 3.82291 24.7258 3.9089 24.8433C3.91266 24.8485 3.8842 24.8872 3.86841 24.9301C3.8534 24.9691 3.84851 25.0111 3.88828 25.0329C4.11589 25.1554 4.59464 25.4107 4.77871 25.5245C5.01273 25.6694 4.99544 26.0093 5.06228 26.0922C5.2423 26.3144 5.41472 26.1081 5.59412 26.2582C5.88038 26.4942 6.16909 26.7237 6.47884 26.9283C7.29865 27.42 8.29387 27.5382 8.6844 28.2424C8.74116 28.3319 8.74263 28.5679 8.78015 28.8834C8.79429 28.9813 8.80754 29.0805 8.82059 29.181C8.83506 29.2804 9.1731 29.6391 9.17746 29.839C9.17866 29.9055 9.12865 30.2576 9.12654 30.3103C9.11915 30.5226 8.95554 30.7217 8.92926 30.8433C8.87719 31.0799 9.18758 31.3049 9.23181 31.423C9.30767 31.6326 9.33524 32.0202 9.34717 32.1123C9.34769 32.117 9.34804 32.1216 9.34823 32.1261C9.35594 32.3298 9.01664 32.3271 9.12295 32.4616C9.15522 32.5023 9.4098 32.406 9.43908 32.5662C9.46255 32.7006 9.27365 32.7902 9.25393 32.8876C9.23439 32.9847 9.57036 33.1001 9.57228 33.159C9.57944 33.466 9.39906 33.6306 9.4393 33.9577C9.47539 34.2279 9.79652 35.4644 9.88324 35.5597C10.274 35.9831 10.0184 35.2223 10.023 35.1767C10.0523 34.9298 10.1818 34.9465 9.9097 34.7434C10.6131 34.4223 9.36056 33.8554 10.1978 33.5296C9.58809 33.4254 9.85286 33.2157 9.93364 32.9885C10.0448 32.6749 9.74623 32.9506 9.70748 32.7434C9.69263 32.6621 9.91137 32.3768 9.8515 32.2599C9.80874 32.1764 9.68884 32.1459 9.6084 32.0758C9.57654 32.0484 9.55102 32.0146 9.53946 31.9688C9.4664 31.6807 9.52837 31.4267 9.74252 31.1558C9.62999 31.1238 9.51785 31.094 9.40553 31.0607C9.50235 30.8768 9.60114 30.6954 9.70102 30.5147C9.60941 30.5503 9.51703 30.5861 9.42551 30.622C9.40734 30.5732 9.38999 30.5236 9.3728 30.4747C9.49974 30.2951 9.61782 30.1253 9.74947 29.9397C9.16459 29.5151 9.64736 29.6125 9.69066 29.3371C9.72863 29.0805 9.44457 28.9601 9.37375 28.7851C9.36839 28.7736 9.36454 28.761 9.36252 28.7476C9.32041 28.4973 9.31397 28.3617 9.18586 28.0236C9.17025 27.9889 9.1572 27.9457 9.14049 27.8996C9.09264 27.7234 9.07522 27.5087 8.91088 27.9214C8.54719 27.5217 7.86435 27.4177 7.49108 27.1173C7.38069 27.0262 7.59085 26.9281 7.57479 26.9039C7.49126 26.7867 7.33451 26.9991 7.23655 26.9328C7.06623 26.8247 6.82487 26.5242 6.76568 26.4292C6.76564 26.4292 6.7656 26.4291 6.76556 26.4291C6.63402 26.2819 6.19564 26.3656 6.15147 26.361C5.9214 26.354 6.04288 26.1101 5.98534 26.0886C5.65324 25.9597 5.51799 25.9835 5.80751 25.4943C5.58437 25.622 5.02556 25.6625 5.23692 25.3013C4.98405 25.5688 4.79459 25.3046 4.58901 25.236C4.63589 25.1337 4.68177 25.0313 4.72892 24.9282C4.43379 25.0047 4.21472 24.9121 4.03277 24.7487C3.74649 24.4944 3.6053 24.0459 3.46056 23.7693C3.45452 23.7584 3.21833 23.9035 3.22118 23.8011C3.22245 23.794 3.32745 23.7282 3.31035 23.6762C3.23861 23.502 3.19085 22.7923 3.17137 22.7283C3.06465 22.4849 2.85973 22.5227 2.77617 22.3738C2.75808 22.3411 2.74763 22.3106 2.74229 22.2819C2.71613 22.1388 2.81499 22.0486 2.73738 21.8927C2.6951 21.8062 2.4337 21.7951 2.42213 21.6327C2.4157 21.5374 2.59849 21.4775 2.59523 21.4052C2.58576 21.1486 2.42954 20.9852 2.63967 20.7233C2.02744 20.7624 2.45481 20.5802 2.48666 20.4655C2.61432 19.9967 2.32726 19.4306 2.36509 19.013C2.43154 18.3043 2.56553 17.6268 2.6648 16.9448C2.74882 16.4096 2.83288 15.8714 2.86231 15.3078C2.87304 15.104 2.56596 15.06 2.58319 14.846C2.59127 14.7499 2.81235 14.6492 2.81467 14.4923C2.81712 14.3662 2.70361 14.1854 2.70416 14.0278C2.70411 13.9858 2.9122 13.9819 2.91378 13.92C2.92563 13.4525 2.7802 12.9939 2.68278 12.5181C2.64654 12.3418 2.92346 12.2358 2.44329 12.2607C2.56173 12.1945 2.66497 12.1302 2.78181 12.0686C2.48211 11.8223 2.79977 11.6291 2.72713 11.3001C2.7184 11.2644 2.39042 11.0122 2.63217 10.8748C2.4614 10.8621 2.31589 10.8815 2.16115 10.8749C2.09807 10.7356 2.2992 10.5255 2.32114 10.431C2.34296 10.3372 2.12206 10.272 2.12043 10.2428C2.11679 10.1345 2.40835 10.1655 2.41334 10.1573C2.70272 9.66233 2.54624 9.71379 2.11458 9.40128C2.07115 9.37202 2.09778 9.26878 2.12367 9.1562L2.12306 9.17097C2.16949 8.99275 2.21508 8.79256 2.01153 8.71299C2.15265 8.71694 2.2748 8.75357 2.40868 8.77023C2.45457 8.6159 2.50118 8.46628 2.54715 8.31209C2.40987 8.33628 2.27202 8.36742 2.13408 8.38925C2.27093 8.08569 1.96929 7.79467 1.99584 7.54109C2.01185 7.39122 2.3094 7.42947 2.24967 7.3398C2.23783 7.32224 2.03413 7.33793 2.02114 7.28685C1.91653 6.86597 2.14136 6.70197 2.20956 6.29153C2.24176 6.10252 1.88672 5.90547 2.14796 5.64796C2.17253 5.6217 2.51764 5.37932 2.06457 5.17514C2.21605 5.13168 2.29679 5.09478 2.42399 5.06309C1.76003 4.67032 2.42913 4.81392 2.63326 4.38284C2.6783 4.28824 2.69779 4.09483 2.70469 3.87817C2.70593 3.87125 2.70693 3.85021 2.70773 3.84322C2.69922 3.52751 2.64561 3.19255 2.60532 3.04023C2.56248 2.88349 2.28927 2.88311 2.27873 2.85556C2.21766 2.6903 2.48219 2.69222 2.43985 2.53923C2.39736 2.38605 2.09879 2.1926 2.12653 2.03639C2.14787 1.91682 2.47649 2.0117 2.3622 1.83452C2.33744 1.79785 2.05838 1.90224 2.16796 1.71578C2.18494 1.68647 2.48676 1.38827 2.55208 1.32715C2.72716 1.48396 2.9554 1.93971 3.02579 2.11233C3.22792 2.61352 3.40314 3.17782 3.51067 3.88769C3.50873 3.90467 3.5063 3.95585 3.50329 3.97268C3.68249 5.47365 3.76083 7.41546 3.71076 9.26822L3.71398 9.19017C3.74313 11.045 3.68511 12.8233 3.62451 14.1131C3.61142 14.4005 3.32551 14.589 3.30209 14.777C3.27883 14.9642 3.54036 14.8033 3.52035 14.973C3.49966 15.1422 3.31576 15.2686 3.30228 15.4259C3.25938 15.9283 3.21981 16.4294 3.19835 16.9166C3.17713 17.5105 3.15391 18.0991 3.14915 18.6669C3.1473 18.9448 3.37013 19.1541 3.38318 19.3949C3.38827 19.489 3.11315 19.5065 3.11964 19.5736C3.18633 20.3009 3.52186 20.8172 3.66721 21.3866C3.70526 21.5379 3.67252 21.7269 3.6672 21.9162C3.66305 22.0275 3.66768 22.1355 3.70002 22.2272C3.77132 22.4312 4.01172 22.548 4.10471 22.6973C4.15579 22.7782 4.00632 22.9334 4.01267 22.9737C4.03676 23.11 4.22515 22.9293 4.25995 22.9802C4.35469 23.1164 4.16279 23.3747 4.29158 23.4908C4.34214 23.535 4.48553 23.3997 4.56926 23.4468C4.67626 23.506 4.51396 23.5986 4.56926 23.6658C4.57226 23.67 4.66185 23.5598 4.69714 23.5877C4.76781 23.643 4.85041 23.6966 4.93832 23.7494C5.19086 23.9182 5.44728 24.0917 5.61973 24.2646C6.1352 24.7824 6.4201 25.4189 6.85793 25.7685C6.9678 25.8548 7.03385 25.6777 7.07397 25.6923C7.10999 25.705 7.13717 25.7226 7.15944 25.7433C7.19314 25.7959 7.18903 25.9438 7.36119 25.9356C7.39811 25.9349 7.60077 25.7323 7.74977 25.8414C7.82937 25.9002 7.89837 26.0851 7.97604 26.1475C8.05415 26.2102 8.13816 25.9908 8.25676 26.0302C8.4791 26.1092 8.35278 26.2264 8.69564 26.347C8.8221 26.3873 9.44198 26.4686 9.76935 26.8326C9.87486 26.9457 9.96994 27.0741 10.0535 27.2133C10.5527 28.0516 10.3331 28.5317 10.3432 28.6247C10.3478 28.7794 10.3542 28.9283 10.3706 29.0705C10.3921 29.2598 10.6554 29.4769 10.6817 29.7547C10.7143 30.0974 10.7063 30.686 10.7397 30.9922C10.7561 31.1494 10.5083 31.1915 10.5002 31.2119C10.4463 31.3418 10.7189 31.2562 10.7187 31.3367C10.7185 31.4463 10.5289 31.5786 10.5321 31.6795C10.5341 31.7437 10.7401 31.7171 10.744 31.7299C10.7571 31.7702 10.7697 31.8097 10.782 31.8488C10.9307 32.3554 10.9978 32.8271 11.1016 33.3434C11.2899 34.2832 11.4673 35.2168 11.6476 36.1321C12.1374 38.0963 12.3231 40.5698 12.1572 42.614C12.1395 42.8744 11.8779 42.8707 11.9111 43.0982C11.9396 43.3058 12.3858 43.5086 12.0322 43.6721C11.9897 43.6906 11.9357 43.7082 11.868 43.7248C11.9935 43.7357 12.0832 43.7388 12.1974 43.7493C12.0017 44.1922 12.1701 44.6498 12.1791 45.0954C12.1858 45.4258 12.1571 45.721 12.1324 46.0339C12.1092 46.3128 11.8912 46.2784 12.1662 46.5369C12.0835 46.9654 12.0194 47.4126 11.9379 47.8642C11.809 48.506 11.734 49.3318 11.4288 50.1285C11.8517 50.4918 11.5122 50.7507 11.3561 51.147C11.3362 51.1963 11.516 51.1776 11.4671 51.3281C11.4361 51.423 11.3502 51.4793 11.2639 51.5523C11.1799 51.6174 11.0974 51.6942 11.0676 51.8395C11.0527 51.916 11.1854 52.5544 10.9835 52.7272C10.7831 52.8985 10.6139 53.1787 10.4135 53.3562C10.5305 53.3558 10.6445 53.3479 10.7607 53.344C10.7479 53.4574 10.7329 53.5741 10.7179 53.6905C10.5841 53.6677 10.4502 53.6445 10.316 53.6203C10.4197 53.7199 10.5209 53.8219 10.6245 53.9254C9.92068 53.856 10.1824 53.7811 10.2489 54.1436C10.2811 54.3245 10.1236 54.4124 10.1331 54.5947C10.1363 54.6623 10.3145 54.7687 10.3148 54.843C10.3133 55.0272 10.0865 54.833 10.0503 54.9323C10.015 55.0306 10.2438 55.2912 10.0385 55.4217C9.61449 55.0207 9.54835 55.6172 9.91146 55.8357C9.87965 55.9029 9.8355 55.9516 9.80821 56.0304C8.8854 55.471 9.39446 56.1459 9.43096 56.366C9.47411 56.5783 9.23121 56.4182 9.22168 56.4546C9.19154 56.5592 9.33382 56.5609 9.29646 56.6253C9.27953 56.6538 9.26183 56.6814 9.24348 56.7082C9.03576 57.0124 8.68248 57.2531 8.41263 57.5676C8.37088 57.6162 8.53455 57.6736 8.47418 57.723C8.41317 57.7727 8.24154 57.7251 8.17809 57.8169C8.16071 57.8416 8.26334 57.9428 8.23233 57.9786C7.57544 58.7238 6.74472 59.2474 5.87301 59.7121C5.86466 59.7165 5.8563 59.7209 5.84793 59.7254C5.78061 59.7615 5.85536 60.0128 5.72205 60.0791C5.58877 60.1453 5.27328 60.0618 5.09726 60.143C5.05051 60.1644 5.14489 60.3557 5.08262 60.385C4.87016 60.4847 4.60653 60.4354 4.37263 60.5305C3.97821 60.69 3.61858 61.0205 3.10695 61.0775C3.02842 61.0859 2.98232 60.9718 2.89162 60.9277C2.87137 60.9182 2.84889 60.9119 2.82314 60.9108C2.58011 60.8967 2.73657 61.1177 2.70091 61.1648C2.58248 61.3145 2.45149 60.9924 2.33912 61.1102C2.32139 61.1284 2.39765 61.3201 2.37939 61.3277C2.09122 61.4283 1.99054 60.9601 1.73913 61.2642C1.43399 61.0353 1.85319 60.8721 1.86724 60.7188C1.90288 60.351 1.55842 59.9922 1.38978 59.8817C1.24205 59.7875 1.27497 60.0055 1.22173 60.0131C0.943478 60.0539 0.523688 60.1355 0.306847 60.0408C0.177218 59.9847 0.399526 59.8805 0.330642 59.8115C0.264227 59.7428 0.231167 59.9107 0.161193 59.7318C0.0857391 59.5532 -0.0193565 59.0196 0.0027413 58.7645ZM9.99536 41.466C10.8029 41.8898 10.7506 42.9554 10.6473 43.6145C10.6398 43.6637 10.6321 43.71 10.6246 43.7534C10.5341 44.2769 9.84936 44.7127 10.825 44.6351C10.8408 44.2756 10.815 43.9589 10.8084 43.6212C10.8049 43.4163 10.8061 43.222 10.8252 42.9929C10.8308 42.932 10.9334 42.5543 10.9529 42.4277C10.9638 42.3551 11.1246 42.3547 11.1256 42.2536C11.1254 42.2312 10.9185 42.1054 10.9251 42.0626C10.9477 41.9093 11.2773 41.4614 11.2683 41.3992C11.2428 41.2224 10.9923 41.2868 10.9476 41.2107C10.7991 40.9605 11.1744 40.9277 11.0518 40.6764C11.0298 40.6291 10.7023 40.4863 10.7421 40.2977C10.7589 40.2245 10.925 40.0883 10.9155 40.0312C10.8646 39.7134 10.6266 39.3711 10.645 39.0819C10.6597 38.8412 10.9156 38.8895 10.9395 38.7579C10.9625 38.6292 10.6568 38.5017 10.6313 38.4178C10.5915 38.2851 10.7372 38.0988 10.7295 38.056C10.6179 37.4333 10.4033 36.8956 10.2375 36.333C10.1799 36.1384 10.126 35.9417 10.0796 35.7397C10.0654 35.947 10.0525 36.1541 10.0401 36.3611C10.0193 36.7124 10.0053 37.0615 9.98203 37.407C10.2856 37.6704 10.0211 37.5566 9.9686 37.7657C9.92595 37.9292 10.3704 37.9098 10.347 38.1248C10.347 38.1246 10.347 38.1245 10.3469 38.1243C10.3344 38.2364 10.0551 38.4986 10.2018 38.7124C10.2073 38.7212 10.4384 38.7183 10.4597 38.8929C10.5075 39.2751 10.6493 39.8751 10.6054 40.3114C10.5926 40.4398 10.3512 40.4208 10.3226 40.5687C10.3018 40.6792 10.5255 40.8055 10.4751 40.9806C10.4107 41.1964 10.0257 41.3015 10.5571 41.4527C10.3666 41.4625 10.1811 41.454 9.99536 41.466ZM9.16453 53.3697C9.135 53.3971 8.44619 53.5967 9.08715 53.6789C9.51945 53.2393 9.55223 52.6206 9.85092 52.1003C9.1929 52.1291 9.34614 52.5142 9.27714 52.9171C9.27709 52.9173 9.27704 52.9174 9.277 52.9176C9.27378 52.9363 9.1381 52.8148 9.13673 52.926C9.1361 52.9802 9.31977 53.2473 9.16453 53.3697Z" fill="#B70102"/>
<path d="M46.5341 61.1154C46.7118 61.3506 46.6324 61.2686 46.579 61.263C46.5153 61.24 46.4231 61.2004 46.3275 61.1602C46.1336 61.078 45.9127 60.9827 45.6924 60.8847C45.2477 60.6867 44.7893 60.4683 44.3347 60.226C43.9517 60.0234 43.5925 59.7786 43.271 59.5086C42.9597 59.2422 43.1005 59.1367 42.9942 59.0138C42.8012 58.7882 42.342 58.5885 42.2971 58.5418C42.0143 58.2588 42.3341 58.171 42.3044 58.1252C42.0027 57.6375 41.8685 57.9696 41.5124 57.6302C41.4712 57.591 41.4304 57.5512 41.3903 57.5115C40.6804 56.7827 40.3255 55.8681 40.0434 55.148C39.9373 54.8658 40.1844 54.9049 39.9477 54.3286C39.8454 54.0787 39.55 53.5435 39.3568 53.0253C39.2276 52.6791 39.1436 52.3318 39.1706 52.0676C39.266 52.0347 39.3956 52.078 39.5049 52.0791C38.8486 51.3323 38.745 50.9882 38.6339 49.6358C38.6205 49.4214 38.4214 49.236 38.4527 48.8505C38.4892 48.4711 38.7469 48.4267 38.7265 47.7205C38.7197 47.475 38.5318 47.3255 38.5157 46.9836C38.505 46.7711 38.5029 46.533 38.4941 46.2877C38.4362 45.0967 38.6056 43.7138 38.6473 43.0057C38.7504 41.5469 38.6004 40.6381 39.0119 39.2773C39.2218 38.5597 39.9876 38.0026 40.4509 37.8779C40.6527 37.8113 40.2976 38.1623 40.6485 38.0381C40.9832 37.931 41.1993 37.6259 41.265 37.606C41.8346 37.4615 42.5349 37.5841 42.6742 37.5637C42.7901 37.5274 42.8755 37.4934 42.926 37.4571C43.4806 37.0351 42.8506 37.2595 43.6108 36.748C44.3163 36.2686 45.3189 35.8078 45.8712 35.0739C46.0612 34.8324 46.1677 34.5975 46.2479 34.3842C46.3458 34.0156 46.2599 33.8311 46.721 33.386C46.8817 32.1792 46.8488 30.7313 46.8523 29.3367C46.843 27.7356 46.7363 26.1006 46.5206 24.5289C46.628 24.5231 46.7356 24.5188 46.8433 24.515C46.792 24.4057 46.7396 24.2946 46.6869 24.1875C46.6323 24.0728 46.5779 23.9591 46.5233 23.8465C46.6076 23.8699 46.6917 23.8917 46.7752 23.9157C46.3071 22.853 45.9637 21.976 45.7096 20.7017C45.7046 20.6769 45.9283 20.6854 45.9282 20.6639C45.9077 20.5021 45.8253 20.3498 45.7481 20.1993C45.6839 20.0736 45.6245 19.9514 45.6091 19.8319C45.5246 19.1969 45.6855 18.0125 45.2623 18.6291C45.1994 18.2987 45.1207 17.956 45.0375 17.6072C44.7574 16.4325 44.3257 15.203 44.139 14.0983C44.0509 13.5761 44.2456 13.306 44.2768 13.0577C44.2826 13.0149 44.2832 12.973 44.2765 12.9309C44.2299 12.6475 43.9805 12.8565 43.9463 12.7609C43.7482 12.1841 43.4809 11.2519 43.7528 11.0509C43.592 10.9748 43.427 10.8949 43.2639 10.8211C43.4346 10.798 43.3632 10.4145 43.2098 9.9408C43.0612 9.4529 42.7526 8.93617 42.6321 8.7269C42.5922 8.65495 42.7215 8.56368 42.687 8.50946C42.3456 7.99049 42.0561 7.93533 41.6829 7.57057C41.6286 7.52122 41.5721 7.46606 41.5121 7.40183C41.3615 7.24383 41.7907 7.354 41.355 6.97061C41.3136 6.9354 41.1437 7.11588 40.7076 6.56174C40.5314 6.33782 40.3018 6.06044 40.0484 5.73508C39.4446 4.93926 38.6266 4.18043 37.88 3.47417C37.8421 3.4331 37.8035 3.39407 37.7642 3.35646C37.7079 3.30866 38.0612 3.20813 37.7259 3.07332C37.5966 3.0311 37.5759 3.22461 37.2825 3.10551C36.9969 2.99693 36.6452 2.90248 36.2361 2.80153C35.9721 2.72877 35.5822 2.69833 35.2067 2.71777C35.2447 2.70755 35.2555 2.67577 35.1912 2.72488C35.1317 2.77069 35.0394 2.88117 34.9561 3.02235C34.7851 3.30846 34.6411 3.69715 34.5265 4.11307C34.3584 3.9852 34.3475 3.40861 34.1744 4.05095C34.1797 4.05355 34.1782 4.08129 34.178 4.12438C34.1786 4.22599 34.3857 4.19301 34.3838 4.23807C34.3688 4.63909 34.2054 5.12378 34.2617 5.69421C34.2794 5.86672 34.4315 5.9122 34.4639 6.12492C34.513 6.44044 34.2932 6.57952 34.3854 6.94978C34.5324 7.53039 34.74 7.61389 34.3442 8.34329C34.3648 9.25683 34.4003 10.1742 34.4377 11.0916C34.4554 11.5399 34.4626 11.9739 34.4831 12.3696C34.5815 14.9916 34.5735 17.4894 34.4954 20.0517C34.4876 20.2774 34.479 20.5115 34.4694 20.7495C34.5879 21.9379 34.7191 23.0416 34.7644 24.2862C34.7776 24.6562 34.5003 24.7225 34.5924 25.3085C34.6127 25.4451 34.9106 26.3718 34.35 26.5113C34.3983 26.7691 34.4 26.9334 34.4298 27.158C34.5121 26.9877 34.5953 26.813 34.6784 26.6515C34.5888 27.5982 34.786 28.3616 34.8788 29.1998C34.9467 29.8125 34.7068 29.3769 34.7305 29.7536C34.7535 30.1316 34.8073 30.3028 34.5187 30.7734C34.8503 31.1454 34.617 31.3889 34.6067 32.0728C34.6058 32.1469 34.7337 32.5695 34.7071 32.9245C34.688 33.1798 34.4806 33.2543 34.5116 33.6591C34.5163 33.7254 34.7705 34.5822 34.793 34.8546C34.8287 35.2789 34.5606 35.9529 34.5571 36.0344C34.5056 37.2277 34.7654 37.6866 34.3295 38.533C34.585 38.7043 34.7312 39.4154 34.7026 39.9828C34.6667 40.7083 34.1312 42.1447 34.6834 42.3505C34.4293 43.1793 34.5826 43.0924 34.5774 44.085C34.574 44.9867 34.3295 47.3736 34.3447 48.1057C34.347 48.2097 34.3554 48.2905 34.3683 48.3542C34.4446 48.7551 34.6805 48.5295 34.7106 48.78C34.769 49.2469 34.547 48.9963 34.5428 49.3221C34.5306 50.2481 34.5515 51.0374 34.6147 51.9392C34.4532 51.9807 34.2908 52.025 34.1292 52.0665C34.1805 52.1144 34.2319 52.1572 34.2829 52.2089C34.2727 52.4064 34.2663 52.6115 34.2521 52.7931C35.0155 51.3422 34.1682 54.1973 33.9778 55.1766C33.9527 55.3156 33.9353 55.4615 33.8946 55.6654C33.8724 55.767 33.8502 55.8835 33.773 56.0653C33.7314 56.158 33.6745 56.2742 33.554 56.4157C33.4434 56.5549 33.2244 56.6947 33.2348 56.6932C32.9748 56.9552 32.6412 57.5935 32.2096 58.0755C32.0535 58.2471 32.0514 58.0119 32.0196 58.0472C31.7057 58.3824 31.642 58.5608 31.179 58.8701C31.0909 58.9272 30.9875 58.9874 30.8557 59.0529C30.4894 59.235 30.0198 59.1995 29.6602 59.3165C28.988 59.538 28.3735 59.6531 27.9836 59.8208C27.042 60.1944 26.1229 60.3821 25.3185 60.5783C24.2077 60.8243 23.1891 60.8135 22.1765 60.7066C21.7277 60.6557 21.3956 60.3319 21.0275 60.2478C20.8576 60.2087 20.7015 60.1924 20.5411 60.1785C20.2306 60.1563 19.9354 60.1715 19.5885 60.0433C19.0687 59.8616 18.4806 59.2429 18.1787 59.077C17.8644 58.909 18.2213 59.4621 17.7286 59.0318C17.5132 58.8352 18.034 58.9858 17.7516 58.7716C17.6953 58.7284 17.6381 58.6851 17.5796 58.6413C16.6441 58.0289 15.8692 56.6575 15.643 55.9623C15.5734 55.7917 15.5191 55.6223 15.4814 55.4582C15.4516 55.5298 15.436 55.6184 15.416 55.7025C15.0939 54.9649 14.968 54.3007 14.8101 53.7309C14.6665 53.2337 14.5739 52.7573 14.4715 52.2687C14.4111 51.9797 14.2478 51.5555 14.1282 51.1929C14.0688 51.0043 14.024 50.8302 14.0034 50.6915C13.9398 50.2502 14.0976 50.0366 14.0705 49.6983C14.0605 49.5592 13.907 49.6273 13.9023 49.5334C13.8556 48.4389 14.0999 47.8225 14.0466 46.8139C14.0428 46.7442 14.0379 46.6725 14.0318 46.599C13.8861 44.7735 13.815 42.9604 13.7118 41.1368C13.6128 39.0698 13.5946 37.0404 13.5629 35.0134C13.5558 34.5125 13.5517 34.0129 13.551 33.5144C13.5509 33.3373 13.3466 33.2141 13.3231 32.955C13.287 32.556 13.4711 32.5426 13.4792 32.4897C13.5309 32.1454 13.3564 32.2806 13.3735 31.8161C13.4099 30.7921 13.648 29.1591 13.693 28.154C13.696 28.0858 13.6988 28.0178 13.7016 27.9499C13.699 27.4317 14.0495 26.7191 14.4735 26.4033C14.8863 26.0697 15.2337 25.9576 15.5159 25.8621C16.0722 25.6904 16.5022 25.6253 16.7177 25.5402C17.3822 25.3087 17.9397 24.6895 18.8772 23.7479C18.9456 23.6802 19.0116 23.6136 19.0781 23.5454C19.1785 23.4405 19.278 23.6866 19.4624 23.5099C20.5474 22.4071 20.586 22.0047 21.2961 20.5759C21.3723 20.4143 21.4239 20.2872 21.4823 20.0466C21.7128 19.0485 21.7356 16.7628 21.7996 14.6832C21.847 13.6466 21.63 12.9683 21.3586 11.6821C21.2773 11.1793 21.2525 10.7697 21.2267 10.3862C21.2273 10.3861 21.2278 10.3861 21.2284 10.3861C20.7991 9.6229 20.7767 8.67736 20.9173 7.86822C20.9483 7.6875 20.9866 7.50676 21.0313 7.32933C21.0853 7.50261 21.1359 7.67519 21.1826 7.84726C21.5026 9.02071 21.6325 10.2508 21.9416 11.5756C22.3059 12.7726 22.6211 13.6069 22.6187 14.6834C22.5894 16.7941 22.8469 19.2648 22.1431 20.9893C21.7021 21.8756 21.2337 22.6848 20.6015 23.4233C20.2848 23.7982 19.9375 24.1589 19.5696 24.5105C18.7097 25.3387 17.9826 26.1677 16.9863 26.4984C16.6444 26.616 16.217 26.6842 15.7765 26.8381C15.556 26.918 15.3191 27.0179 15.1023 27.2144C14.8815 27.4053 14.7424 27.7346 14.7481 28.0092C14.7481 30.344 14.7848 32.6985 14.856 35.0261C14.9051 36.7334 14.9208 38.4339 14.9082 40.1073C14.9056 40.5509 14.7711 40.8045 14.7258 41.1069C14.7092 41.2215 14.7044 41.3379 14.723 41.4778C14.7347 41.5639 14.9271 41.3348 14.9549 41.5994C15.1314 43.2822 15.1266 45.0199 15.1705 46.7475C15.2093 48.1686 15.1507 49.587 15.3986 50.9426C15.511 51.5363 15.6333 52.1228 15.8065 52.6833C15.8873 52.9433 15.9739 53.1327 16.0618 53.2856C16.29 53.6869 16.4793 53.8993 16.7194 54.4412C16.571 54.3417 16.4357 54.2862 16.2936 54.1972C16.3975 54.6157 16.522 55.0287 16.6962 55.4258C17.0513 56.2831 17.3998 57.2327 18.1974 57.8326C18.9485 58.4585 19.8662 58.9209 20.8192 59.1666C22.2121 59.506 23.653 59.6571 25.0953 59.4217C25.2412 59.3948 25.3877 59.3689 25.5345 59.3429C25.71 59.3121 25.7731 59.5212 25.9602 59.4926C26.3362 59.4357 26.6414 59.123 26.9556 59.0274C27.2796 58.9273 27.4245 58.9879 27.6593 58.9451C27.7173 58.9352 27.7804 58.9194 27.8554 58.8926C28.028 58.8333 27.9255 58.6865 28.3329 58.6078C28.3675 58.6012 28.4311 58.7651 28.6967 58.6726C29.1687 58.5174 29.9633 58.168 30.5313 57.7531C30.8584 57.5234 31.0897 57.2658 31.2428 57.1014C31.7778 56.4935 32.4078 56.219 32.6425 56.0901C32.7034 56.0518 32.7576 56.0179 32.8061 55.9875C32.8781 55.9567 33.0155 55.8079 33.0372 55.7327C33.0728 55.6506 33.0851 55.5831 33.0918 55.5265C33.1045 55.4118 33.0958 55.3153 33.0845 55.2294C33.0622 55.0492 33.0337 54.8763 33.0688 54.5621C33.2676 52.465 33.3471 50.412 33.4589 48.3365C33.5969 45.5506 33.7209 42.7505 33.7386 39.8431C33.7406 39.527 33.4483 38.3473 33.463 37.7602C33.4689 37.5633 33.5525 36.5328 33.5596 36.3782C33.5871 35.7515 33.7697 35.2105 33.8088 34.8653C33.8852 34.1955 33.6049 33.4454 33.5776 33.081C33.5292 32.4398 33.5685 31.3031 33.5761 31.0341C33.5949 30.3836 33.9437 30.6 33.8628 30.1341C33.8387 29.996 33.5709 30.1395 33.5714 29.6543C33.5728 29.2495 33.7745 29.0838 33.811 28.8061C33.8473 28.5293 33.5359 28.0199 33.5438 27.8464C33.5877 26.9461 33.792 26.5395 33.8022 25.5603C33.8106 24.7373 33.6629 20.9687 33.5883 20.6499C33.2573 19.2411 33.4094 21.5866 33.3983 21.7165C33.3357 22.437 33.2097 22.3202 33.451 23.0407C32.7106 23.6786 33.8661 25.8929 32.9867 26.4662C33.5723 27.0497 33.2769 27.5463 33.1588 28.1668C32.9955 29.0219 33.3372 28.3698 33.3391 28.9952C33.3396 29.2448 33.0728 29.9534 33.1094 30.3251C33.1461 30.6934 33.3498 30.8512 33.3603 31.3463C33.3796 32.2304 33.2828 32.9434 33.0364 33.6852C33.1441 33.8215 33.2519 33.9489 33.3595 34.0836C33.2419 34.5965 33.1248 35.1106 33.0075 35.6236C33.1022 35.542 33.1977 35.4602 33.2924 35.3784C33.3055 35.5286 33.3179 35.6792 33.3303 35.8292C33.1864 36.3273 33.053 36.8035 32.9038 37.316C33.4431 38.7095 32.9724 38.3081 32.8972 39.0789C32.8218 39.8547 33.1348 40.306 33.1323 40.9009C33.1288 41.7104 33.1654 42.0803 33.1355 42.8909C33.1184 43.3657 32.8054 44.156 33.295 43.5067C33.3199 44.9771 33.4287 47.0013 33.2066 48.3045C33.205 48.3141 33.2033 48.3231 33.2016 48.3315C33.16 48.5437 33.0923 48.4301 33.0421 48.3284C33.0113 48.2695 32.9871 48.2145 32.9796 48.2384C32.9707 48.2683 32.9647 48.2978 32.9611 48.3268C32.926 48.6297 33.1209 48.8707 33.0815 49.1895C33.0107 49.7482 32.7874 50.8479 32.7257 51.2849C32.6395 51.923 32.9097 52.9313 32.9254 53.0398C33.0216 53.623 32.7441 53.7464 32.7478 53.9374C32.7747 54.9494 32.7945 55.3249 32.2117 55.2933C32.2333 55.3072 32.2542 55.3209 32.2922 55.3132C32.3156 55.3118 32.4501 55.2484 32.3985 55.3163C32.0414 55.7734 31.6774 56.4561 31.2868 56.3861C31.5297 56.6358 30.9103 57.263 30.4491 57.6113C30.4339 57.6231 30.419 57.6348 30.4047 57.6463C30.2592 57.6066 30.1132 57.5651 29.974 57.5155C29.589 58.1543 28.5584 58.3984 27.551 58.6528C26.7037 58.9073 25.7972 58.9297 25.0672 59.0351C25.0558 59.0369 25.0461 59.0614 25.0323 59.0951C25.001 59.1785 24.9381 59.3215 24.7614 59.3011C24.7458 59.2978 24.753 59.1733 24.5953 59.1755C24.0626 59.2396 22.1225 58.7746 21.9159 58.7027C21.444 58.6183 21.1905 58.6255 20.967 58.629C20.8008 58.6283 20.6462 58.6254 20.4453 58.5666C19.8122 58.3659 19.8067 58.1594 19.2725 57.8809C19.0501 57.7569 18.7356 57.7838 18.4106 57.5534C18.3766 57.5293 18.3444 57.503 18.3119 57.4718C18.1205 57.2822 18.2391 57.1245 18.1188 56.9718C17.7036 56.4163 17.4182 55.9527 17.303 55.1646C17.2604 55.171 17.2217 55.1747 17.1866 55.176C16.7075 55.2135 16.9339 54.761 16.8679 54.4605C16.7744 54.0532 16.6552 53.6043 16.4844 53.1353C16.2224 52.4126 15.9943 51.5808 15.836 50.8564C15.7926 50.6558 15.7625 50.4592 15.7458 50.2734C15.6429 49.0872 15.706 47.9097 15.7173 46.7153C15.7434 44.8425 15.8652 42.9885 15.89 41.0725C15.9001 40.5088 15.916 39.9244 15.9271 39.3322C15.9392 38.7267 15.633 38.5796 15.6544 37.9414C15.6645 37.6544 15.8879 37.3602 15.8945 36.8903C15.9004 36.5127 15.7923 35.9715 15.7977 35.4986C15.799 35.3721 16.0072 35.3629 16.0106 35.1791C16.0115 35.1308 16.0122 35.0835 16.0127 35.0374C16.0271 33.6981 15.9222 32.3864 15.8856 31.0241C15.8714 30.5015 16.1638 30.1928 15.6799 30.2571C15.8075 30.0636 15.92 29.8749 16.0459 29.6939C15.8489 29.1458 15.9934 28.6884 16.0701 28.0842C16.1021 28.0819 16.0137 28.2748 15.9794 28.2547C15.9689 28.2592 15.9386 28.16 16.0925 28.0512C16.2359 27.9461 16.4976 27.8707 16.725 27.949C16.7217 27.7755 16.6302 27.6454 16.6128 27.491C16.7774 27.4307 16.9932 27.4114 17.233 27.3785C17.5586 27.3358 17.886 27.2701 18.0574 27.1966C18.3552 27.0691 18.4092 26.7648 18.4817 26.7154C18.7604 26.5198 18.8647 26.7968 18.8899 26.7864C20.184 26.0797 20.0671 25.9624 20.3029 25.3182C20.3357 25.2316 20.3694 25.1385 20.4125 25.0301C20.5123 24.8196 21.8337 23.857 21.7225 23.3668C21.8452 23.4381 21.8925 23.5836 21.9847 23.685C22.3072 23.3145 22.6053 22.9116 22.8719 22.5024C22.7033 22.5275 22.5247 22.5672 22.3607 22.5773C22.6562 22.1884 22.8087 21.7704 22.9316 21.3741C23.0708 20.9485 23.0982 20.5315 23.1624 20.1451C23.2307 19.7044 23.5161 19.7849 23.4752 19.5127C23.4661 19.4608 23.2582 19.5318 23.253 19.3794C23.1928 18.1447 23.3946 17.6124 23.4445 16.3884C23.464 15.8607 23.1564 15.3954 23.2923 14.6835C23.3045 14.6172 23.3198 14.5529 23.3384 14.4817C23.3665 14.4192 23.6494 13.523 23.0811 13.1026C23.1964 12.9179 23.2405 12.7597 23.3328 12.6114C22.6607 12.0089 22.8447 11.9016 22.9697 11.3879C23.0192 11.2022 23.0668 10.9607 23.0775 10.6014C23.0836 10.1105 22.988 8.75081 22.8522 7.71537C22.7977 7.31422 22.736 6.97327 22.6914 6.7594C22.5943 6.30472 22.3229 6.34702 22.3026 6.26681C22.1811 5.78929 22.4425 5.75604 22.3448 5.31418C22.3355 5.27173 22.3237 5.22841 22.31 5.18464C22.3098 5.18238 22.3087 5.17564 22.3084 5.17339C22.1603 4.76493 21.8381 4.30485 21.7941 3.8868C21.757 3.53255 22.1268 3.75554 21.9286 3.25628C21.8866 3.15302 21.6615 3.50482 21.68 2.94055C21.6801 2.93705 21.6804 2.93226 21.681 2.92627C21.7003 2.78181 21.8372 1.91874 21.8657 1.73473C21.9925 1.9476 22.1742 2.38057 22.329 2.82639C22.4896 3.26103 22.6402 3.70954 22.7171 3.9551C22.8268 4.30491 22.9372 4.67026 23.048 5.05013C23.0493 5.0593 23.0536 5.08671 23.0545 5.09592C23.2415 5.86406 23.448 6.71188 23.6028 7.65608C23.8007 8.84605 23.8939 10.1766 24.1345 11.1751C24.3493 11.8394 24.8682 13.411 24.864 14.6838C24.9094 15.7568 24.9527 16.8526 24.9681 17.9924C24.9315 19.1263 25.1471 20.3455 24.389 22.0853C23.7668 23.5656 22.5523 25.2996 21.2901 26.4057C20.5296 27.097 19.4161 28.358 17.6465 28.8537C16.9905 29.0259 16.6082 29.0665 16.4561 29.1211C16.3885 29.1359 16.4249 29.1625 16.6307 28.9951C16.8478 28.8418 17.0696 28.343 17.0543 28.14C16.8981 30.7105 16.7791 33.031 16.7338 35.0445C16.7277 35.2905 16.7215 35.5323 16.7154 35.7682C16.6935 36.6329 16.4024 37.1948 16.3747 37.757C16.3475 38.3189 16.6122 37.845 16.589 38.354C16.5654 38.8621 16.3802 39.2334 16.367 39.7059C16.3545 40.1615 16.344 40.6182 16.3411 41.0592C16.3373 42.9515 16.2981 44.8532 16.3546 46.6777C16.3854 47.5986 16.3895 48.4705 16.444 49.3032C16.4794 49.8401 16.6318 50.2767 16.7728 50.6719C16.8445 50.888 16.9089 51.1032 16.9556 51.3262C17.0134 51.6004 16.7462 51.6671 16.7923 51.859C16.8846 52.2415 16.9933 52.6018 17.1211 52.9088C17.4236 53.6769 17.6512 54.2941 17.9561 54.784C18.4965 55.7816 18.7284 56.2086 19.1805 56.5455C19.2475 56.5971 19.3129 56.6473 19.377 56.6958C19.9476 57.1397 20.4314 57.5783 21.1853 57.8347C21.2376 57.8535 21.299 57.8722 21.3577 57.888C21.9959 58.0569 22.7508 57.9908 23.342 58.0124C23.6644 58.0233 23.8328 58.2283 23.9514 58.2422C24.3577 58.2805 24.2 58.0288 24.3931 58.0133C24.5607 57.997 24.6984 58.0081 24.8261 58.0265C25.1946 58.0472 25.4992 58.1343 25.8876 58.0374C26.1085 57.9804 26.0415 57.7951 26.3392 57.6916C26.7074 57.5558 26.616 57.7686 26.882 57.695C26.8974 57.6907 26.806 57.5727 26.9373 57.5233C26.9941 57.5016 27.0508 57.4787 27.1072 57.4545C28.3647 57.0041 29.0785 56.8182 29.7436 56.3946C29.7667 56.381 29.7912 56.3659 29.817 56.3493C30.2655 56.098 30.8081 55.3183 31.9768 54.622C32.0602 54.5734 31.8565 54.6996 31.7752 54.8064C31.6833 54.9152 31.6535 54.9867 31.6388 55.0219C31.6127 55.0933 31.6311 55.0735 31.6427 55.046C31.671 54.9815 31.7046 54.8594 31.7333 54.7373C31.7924 54.4815 31.8416 54.2015 31.8854 53.9158C31.9728 53.3393 32.0367 52.7639 32.0782 52.1854C32.1128 51.6831 31.9228 51.8089 31.9205 51.6443C31.9076 50.8723 32.1356 50.6049 32.0784 49.7899C32.0691 49.6492 31.8281 49.095 31.9029 48.5853C31.9157 48.4963 31.9409 48.4026 31.9708 48.3075C32.0352 48.1136 32.1213 47.9137 32.1496 47.7471C32.191 47.501 31.9576 47.4693 31.9621 47.1786C31.9697 46.6412 32.1295 46.8155 32.1112 46.0534C32.1041 45.758 31.8953 44.7322 31.92 43.9584C31.9608 42.6824 32.1759 41.1027 32.1882 39.5989C32.193 39.0815 31.9564 38.4173 31.9578 37.618C31.9595 36.6396 32.0208 34.8373 32.0267 33.8344C32.0297 33.3216 32.2816 33.2854 32.2923 33.2244C32.3633 32.8323 32.0815 32.9898 32.0933 32.7268C32.1094 32.3659 32.3177 32.0297 32.332 31.7013C32.3412 31.4921 32.1339 31.4587 32.1323 31.4134C32.0667 29.7382 32.0873 28.2498 32.0648 26.5855C32.0358 24.412 31.9959 22.2291 31.9523 20.0574C31.8953 17.5241 31.8661 14.92 31.7633 12.4853C31.7383 12.0059 31.731 11.5775 31.7137 11.1719C31.6898 8.5637 31.2609 6.69969 31.9265 3.16395C32.1095 2.70939 32.304 2.21156 32.6453 1.64597C32.979 1.1415 33.5477 0.201268 34.9567 0.0281372C35.49 -0.014177 36.021 -0.0207502 36.6516 0.090371C36.701 0.0994587 36.7498 0.10975 36.7966 0.120941C37.4786 0.303436 37.4975 0.5237 38.2753 0.770245C38.7229 0.925004 39.278 1.03613 39.7219 1.3463C39.9576 1.48651 40.1499 1.69925 40.1586 2.08983C40.2564 2.00849 40.3149 1.94044 40.4056 1.86789C41.04 2.57978 41.7336 3.29765 42.3292 4.02254C42.6227 4.37076 42.9504 4.72444 43.2768 5.12979C43.5091 5.41852 43.7365 5.71951 43.9503 6.03858C44.227 6.44697 44.6464 7.02943 44.9725 7.65484C45.3847 8.47667 45.1852 8.54014 45.6142 9.09528C45.6416 9.12791 45.672 9.16273 45.706 9.20051C46.0263 10.2363 46.3507 11.4331 46.5649 12.5359C46.8539 13.9712 47.2385 15.4725 47.5369 16.9933C47.6925 17.8001 47.8764 18.6246 48.037 19.4735C48.0596 19.4954 48.0814 19.5177 48.1024 19.5405C48.705 20.2036 48.6455 21.0446 48.8021 22.1727C48.821 22.3176 48.9612 22.1307 49.0255 22.5604C49.0889 22.9997 48.9567 23.2951 48.9811 23.8526C48.9873 23.9839 49.0008 24.1302 49.0246 24.2958C49.0701 24.5323 49.5274 26.2604 49.4047 26.9185C49.2947 27.5739 49.237 28.5122 49.0932 29.1845C49.2053 29.0891 49.312 28.9672 49.4215 28.8592C49.4323 29.0217 49.4419 29.1855 49.4503 29.3492C49.4593 29.5224 49.4682 29.6879 49.477 29.8593C49.3419 29.9059 49.2068 29.9505 49.0709 29.9959C49.1976 30.1887 49.3223 30.3804 49.4497 30.5731C48.7509 30.9825 48.9871 30.5523 49.1407 31.4888C49.2143 31.9593 49.08 32.3306 49.1116 32.8384C49.1226 33.0236 49.3152 33.1586 49.3166 33.3752C49.3107 33.9095 49.075 33.5629 49.0238 33.8902C48.9668 34.2081 49.1652 34.8319 48.7111 35.4481C48.6282 35.0323 48.4384 35.2396 48.2629 35.5579C48.0946 35.8684 47.9475 36.3898 48.1116 36.5588C47.9962 36.7325 47.8801 36.8679 47.747 37.0648C47.0166 36.2535 46.9784 37.5516 46.7205 37.9802C46.4937 38.3985 46.3086 38.1639 46.24 38.2402C46.0335 38.4546 46.2761 38.4094 46.1157 38.545C45.3785 39.153 44.5759 39.5182 43.7949 39.842C43.2492 40.0761 42.7801 40.1284 42.3782 40.1886C42.1982 40.2134 42.3782 40.3522 42.1728 40.3658C41.9753 40.3783 41.7663 40.2402 41.5669 40.2948C41.5171 40.3091 41.5326 40.453 41.4851 40.4675C41.429 40.4833 41.4224 40.4978 41.4798 40.4554C41.536 40.418 41.6354 40.288 41.6593 40.1986C41.1495 41.8015 41.0149 44.0477 41.1325 46.0375C41.1418 46.1455 41.1493 46.2519 41.1553 46.3578C41.1696 46.6147 41.4332 46.8181 41.4316 47.2834C41.4286 47.7481 41.2099 48.3795 41.2504 48.8936C41.2605 49.0289 41.4758 49.04 41.4942 49.2153C41.5599 49.8105 41.5065 50.3673 41.6604 51.0123C41.7473 51.3733 41.8679 51.7354 42.003 52.098C42.2858 52.8553 42.5778 53.6113 42.7919 54.3194C42.8545 54.5182 42.6766 54.5626 42.7624 54.8517C42.9197 55.3369 43.0595 55.0356 43.1352 55.1016C43.3659 55.2757 43.1831 55.517 43.3617 55.6699C43.3795 55.6856 43.3993 55.701 43.4213 55.7158C43.4706 55.7489 43.5641 55.5496 43.6018 55.5855C44.1596 56.1341 43.8239 56.5026 44.5499 56.8369C44.8618 57.4833 43.9678 56.8116 43.7781 56.803C43.3128 56.829 43.5617 57.708 43.8858 58.1419C44.1593 58.5121 44.2973 58.3279 44.4377 58.4284C44.623 58.5562 44.84 58.6876 45.0756 58.8079C45.756 59.1544 46.5148 59.5556 46.8899 59.8711C47.1868 60.1208 46.5455 59.8482 46.6781 60.0108C46.8068 60.1698 47.0037 60.0939 47.0594 60.3464C47.0833 60.4695 47.0966 60.7002 46.9906 60.8592C46.9056 61.0492 46.5653 60.9528 46.5341 61.1154ZM34.2962 3.24866C34.2299 2.78377 34.263 1.90979 35.1055 1.62842C35.5326 1.53086 36.0073 1.48379 36.4961 1.55806C37.2952 1.67405 38.1774 1.92093 38.7545 2.46387C39.0316 2.71589 39.2903 2.956 39.508 3.17544C40.2328 3.89499 40.5739 4.79446 40.8737 5.11542C41.0501 5.3041 41.2213 5.30028 41.4296 4.99281C41.3815 4.92964 41.334 4.86709 41.2872 4.80494C40.562 3.82976 39.735 3.09873 38.8406 2.36449C38.5073 2.0802 38.1049 1.86488 37.6728 1.70664C37.5484 1.65308 36.994 1.45431 36.5429 1.3344C36.3011 1.26867 36.0843 1.23963 35.9491 1.22679C35.7138 1.20828 35.7069 1.04471 35.3794 1.05706C35.3391 1.05915 35.1994 1.13395 35.066 1.20436C34.9211 1.26127 34.7987 1.33903 34.7254 1.36498C34.0154 1.51151 33.0856 2.78439 33.0344 2.95307C32.8472 3.46622 33.1627 3.36563 33.1193 3.59376C33.1169 3.60668 33.1145 3.61934 33.112 3.63174C33.0141 4.4943 32.7207 4.49285 32.7833 5.2667C32.7987 5.40273 33.1083 5.85995 33.0605 6.40779C33.0401 6.63097 32.8707 7.01505 32.8796 7.18568C32.9258 8.12323 33.1721 9.15913 33.1576 10.0133C33.1459 10.7133 32.8888 10.5336 32.8655 10.9036C32.861 10.9803 32.8702 11.059 32.8878 11.1373C32.9562 11.4396 33.1487 11.7622 33.1669 11.9633C33.18 12.112 33.1678 12.2733 33.1499 12.4263C33.1212 12.688 33.0595 12.9064 33.0629 12.9866C33.1503 15.4467 33.3402 17.6558 33.4175 20.0417C33.529 18.4213 33.6303 16.797 33.7394 15.1884C33.4715 14.2717 33.72 14.7272 33.7961 14.1266C33.8552 13.6437 33.4132 13.5367 33.4492 12.9108C33.4492 12.9113 33.4492 12.9119 33.4492 12.9124C33.456 12.7909 33.4994 12.6155 33.5398 12.4097C33.6106 12.0673 33.6972 11.6318 33.6058 11.1983C33.6034 11.1881 33.5613 11.1721 33.5113 11.1189C33.4425 11.0474 33.3591 10.9034 33.3458 10.6046C33.2948 9.45046 33.1329 7.67815 33.1978 6.37435C33.2177 5.99216 33.4565 6.07328 33.4988 5.62614C33.5321 5.30251 33.3197 4.90888 33.4252 4.40398C33.4784 4.16239 33.5921 3.95878 33.6845 3.85764C33.8554 3.6291 33.9444 3.44343 33.7617 3.06656C33.9498 3.11322 34.1109 3.20716 34.2962 3.24866ZM47.8939 30.2723C47.8742 30.3658 47.2563 31.565 47.8985 31.2199C48.015 30.6106 48.0651 29.9848 48.0929 29.3427C48.1388 28.2667 48.0764 27.1676 48.0888 26.0789C47.5081 26.715 47.8208 27.6768 47.8779 28.8838C47.8779 28.8843 47.878 28.8848 47.878 28.8853C47.8805 28.9419 47.7146 28.7067 47.7466 29.0282C47.752 29.0841 47.7882 29.197 47.826 29.3414C47.8936 29.6037 47.9691 29.9622 47.8939 30.2723Z" fill="#B70102"/>
<path d="M65.793 6.65787L65.409 6.76187C65.281 6.80454 65.1823 6.86587 65.113 6.94587C65.0436 7.02054 65.009 7.12187 65.009 7.24987V15.3939C65.009 15.6019 65.065 15.7512 65.177 15.8419C65.289 15.9272 65.4516 15.9699 65.665 15.9699H66.641C66.929 15.9699 67.1796 15.9299 67.393 15.8499C67.6063 15.7645 67.8036 15.6152 67.985 15.4019C68.1716 15.1885 68.3583 14.8792 68.545 14.4739L69.065 13.3459C69.1396 13.1912 69.233 13.0872 69.345 13.0339C69.457 12.9805 69.5876 12.9752 69.737 13.0179C69.8863 13.0605 69.9903 13.1325 70.049 13.2339C70.113 13.3352 70.121 13.4739 70.073 13.6499L69.313 16.4979C69.2436 16.7432 69.1556 16.9219 69.049 17.0339C68.9476 17.1512 68.793 17.2099 68.585 17.2099C68.457 17.2099 68.3316 17.1859 68.209 17.1379C68.0916 17.0899 67.9556 17.0419 67.801 16.9939C67.6516 16.9459 67.4676 16.9219 67.249 16.9219H61.337C61.145 16.9219 61.001 16.8819 60.905 16.8019C60.8143 16.7219 60.769 16.6125 60.769 16.4739C60.769 16.2392 60.8916 16.0765 61.137 15.9859L61.521 15.8819C61.6543 15.8392 61.753 15.7805 61.817 15.7059C61.8863 15.6259 61.921 15.5219 61.921 15.3939V7.24987C61.921 7.12187 61.8863 7.02054 61.817 6.94587C61.753 6.86587 61.6543 6.80454 61.521 6.76187L61.137 6.65787C60.8916 6.56721 60.769 6.40454 60.769 6.16987C60.769 6.02587 60.8143 5.91654 60.905 5.84187C61.001 5.76187 61.145 5.72187 61.337 5.72187H65.593C65.7903 5.72187 65.9343 5.76187 66.025 5.84187C66.121 5.91654 66.169 6.02587 66.169 6.16987C66.169 6.40454 66.0436 6.56721 65.793 6.65787ZM78.6004 12.1459C78.6004 12.4659 78.5097 12.7139 78.3284 12.8899C78.1524 13.0659 77.8964 13.1539 77.5604 13.1539H72.6884V12.4419H75.3924C75.6697 12.4419 75.8084 12.3139 75.8084 12.0579C75.8084 11.3592 75.7044 10.8472 75.4964 10.5219C75.2937 10.1912 75.0217 10.0259 74.6804 10.0259C74.419 10.0259 74.187 10.1112 73.9844 10.2819C73.787 10.4525 73.6297 10.7059 73.5124 11.0419C73.395 11.3725 73.3364 11.7805 73.3364 12.2659C73.3364 13.2739 73.5657 14.0205 74.0244 14.5059C74.4884 14.9859 75.1097 15.2259 75.8884 15.2259C76.3044 15.2259 76.675 15.1565 77.0004 15.0179C77.3257 14.8792 77.603 14.6605 77.8324 14.3619C77.955 14.2445 78.0484 14.1645 78.1124 14.1219C78.1817 14.0792 78.2484 14.0579 78.3124 14.0579C78.403 14.0579 78.4697 14.1032 78.5124 14.1939C78.5604 14.2792 78.5844 14.3859 78.5844 14.5139C78.5684 14.9832 78.4057 15.4179 78.0964 15.8179C77.787 16.2125 77.363 16.5299 76.8244 16.7699C76.2857 17.0099 75.6617 17.1299 74.9524 17.1299C74.163 17.1299 73.4564 16.9699 72.8324 16.6499C72.2137 16.3299 71.7257 15.8845 71.3684 15.3139C71.011 14.7379 70.8324 14.0659 70.8324 13.2979C70.8324 12.4605 70.9977 11.7272 71.3284 11.0979C71.6644 10.4632 72.147 9.96987 72.7764 9.61787C73.411 9.26054 74.171 9.08187 75.0564 9.08187C75.819 9.08187 76.4644 9.21254 76.9924 9.47387C77.5204 9.73521 77.9204 10.0979 78.1924 10.5619C78.4644 11.0205 78.6004 11.5485 78.6004 12.1459ZM83.0711 9.92987C82.7298 9.92987 82.4684 10.0099 82.2871 10.1699C82.1058 10.3299 82.0151 10.5272 82.0151 10.7619C82.0151 10.9059 82.0444 11.0392 82.1031 11.1619C82.1671 11.2845 82.2924 11.3965 82.4791 11.4979C82.6711 11.5939 82.9564 11.6819 83.3351 11.7619C84.2364 11.9325 84.9271 12.1512 85.4071 12.4179C85.8871 12.6792 86.2178 12.9885 86.3991 13.3459C86.5804 13.6979 86.6711 14.0952 86.6711 14.5379C86.6711 15.3379 86.3884 15.9699 85.8231 16.4339C85.2631 16.8979 84.4418 17.1299 83.3591 17.1299C82.9804 17.1299 82.6738 17.0979 82.4391 17.0339C82.2098 16.9752 82.0231 16.9165 81.8791 16.8579C81.7351 16.7939 81.6071 16.7619 81.4951 16.7619C81.3724 16.7619 81.2711 16.7939 81.1911 16.8579C81.1111 16.9165 81.0311 16.9752 80.9511 17.0339C80.8764 17.0979 80.7804 17.1299 80.6631 17.1299C80.5564 17.1299 80.4738 17.0979 80.4151 17.0339C80.3564 16.9699 80.3031 16.8552 80.2551 16.6899L79.7831 15.1539C79.7138 14.9245 79.6924 14.7405 79.7191 14.6019C79.7511 14.4632 79.8364 14.3672 79.9751 14.3139C80.1191 14.2605 80.2444 14.2605 80.3511 14.3139C80.4578 14.3619 80.5591 14.4605 80.6551 14.6099C80.9004 14.9992 81.1564 15.3192 81.4231 15.5699C81.6951 15.8152 81.9778 15.9965 82.2711 16.1139C82.5698 16.2259 82.8764 16.2819 83.1911 16.2819C83.5964 16.2819 83.9004 16.2019 84.1031 16.0419C84.3058 15.8765 84.4071 15.6605 84.4071 15.3939C84.4071 15.2285 84.3644 15.0845 84.2791 14.9619C84.1938 14.8339 84.0311 14.7165 83.7911 14.6099C83.5511 14.5032 83.1938 14.4019 82.7191 14.3059C81.9938 14.1619 81.4151 13.9672 80.9831 13.7219C80.5511 13.4712 80.2418 13.1672 80.0551 12.8099C79.8738 12.4525 79.7831 12.0365 79.7831 11.5619C79.7831 11.0605 79.9138 10.6259 80.1751 10.2579C80.4364 9.88454 80.7991 9.59654 81.2631 9.39387C81.7271 9.18587 82.2578 9.08187 82.8551 9.08187C83.2444 9.08187 83.5538 9.11387 83.7831 9.17787C84.0178 9.24187 84.2071 9.30854 84.3511 9.37787C84.5004 9.44187 84.6391 9.47387 84.7671 9.47387C84.9004 9.47387 85.0098 9.44187 85.0951 9.37787C85.1858 9.30854 85.2738 9.24187 85.3591 9.17787C85.4444 9.11387 85.5431 9.08187 85.6551 9.08187C85.7564 9.08187 85.8391 9.11654 85.9031 9.18587C85.9724 9.25521 86.0204 9.37521 86.0471 9.54587L86.3671 11.0099C86.4098 11.2392 86.4151 11.4152 86.3831 11.5379C86.3564 11.6605 86.2764 11.7485 86.1431 11.8019C86.0044 11.8605 85.8818 11.8579 85.7751 11.7939C85.6684 11.7299 85.5591 11.6152 85.4471 11.4499C85.0951 10.8899 84.7111 10.4979 84.2951 10.2739C83.8844 10.0445 83.4764 9.92987 83.0711 9.92987ZM62.993 25.7219H68.537C68.7556 25.7219 68.9396 25.7005 69.089 25.6579C69.2383 25.6099 69.3716 25.5645 69.489 25.5219C69.6063 25.4739 69.7263 25.4499 69.849 25.4499C70.0623 25.4499 70.2223 25.5032 70.329 25.6099C70.441 25.7112 70.529 25.8845 70.593 26.1299L71.113 28.7699C71.1503 28.9512 71.137 29.0979 71.073 29.2099C71.009 29.3219 70.8996 29.3912 70.745 29.4179C70.601 29.4499 70.473 29.4419 70.361 29.3939C70.2543 29.3405 70.1636 29.2365 70.089 29.0819C69.7903 28.4472 69.5343 27.9619 69.321 27.6259C69.1076 27.2845 68.8996 27.0499 68.697 26.9219C68.4943 26.7885 68.2623 26.7219 68.001 26.7219H67.305V35.3939C67.305 35.5219 67.3396 35.6259 67.409 35.7059C67.4783 35.7805 67.5796 35.8392 67.713 35.8819L68.097 35.9859C68.3423 36.0765 68.465 36.2392 68.465 36.4739C68.465 36.7725 68.273 36.9219 67.889 36.9219H63.633C63.441 36.9219 63.297 36.8819 63.201 36.8019C63.1103 36.7219 63.065 36.6125 63.065 36.4739C63.065 36.2392 63.1876 36.0765 63.433 35.9859L63.817 35.8819C63.9503 35.8392 64.049 35.7805 64.113 35.7059C64.1823 35.6259 64.217 35.5219 64.217 35.3939V26.7219H63.529C63.2676 26.7219 63.0356 26.7885 62.833 26.9219C62.6303 27.0499 62.4223 27.2845 62.209 27.6259C61.9956 27.9619 61.737 28.4472 61.433 29.0819C61.3583 29.2365 61.265 29.3405 61.153 29.3939C61.0463 29.4419 60.921 29.4499 60.777 29.4179C60.6276 29.3912 60.521 29.3219 60.457 29.2099C60.393 29.0979 60.377 28.9512 60.409 28.7699L60.937 26.1299C61.001 25.8845 61.0863 25.7112 61.193 25.6099C61.2996 25.5032 61.4596 25.4499 61.673 25.4499C61.801 25.4499 61.9236 25.4739 62.041 25.5219C62.1583 25.5645 62.2916 25.6099 62.441 25.6579C62.5903 25.7005 62.7743 25.7219 62.993 25.7219ZM74.9587 32.6179C74.9587 31.8285 75.0654 31.1725 75.2787 30.6499C75.4974 30.1219 75.7854 29.7299 76.1427 29.4739C76.5001 29.2125 76.8841 29.0819 77.2947 29.0819C77.8281 29.0819 78.2387 29.2392 78.5267 29.5539C78.8147 29.8632 78.9587 30.3219 78.9587 30.9299C78.9587 31.5165 78.8387 31.9512 78.5987 32.2339C78.3641 32.5165 78.0547 32.6579 77.6707 32.6579C77.2867 32.6579 76.9961 32.5565 76.7987 32.3539C76.6067 32.1512 76.5107 31.8712 76.5107 31.5139V31.2019C76.5054 31.0525 76.4707 30.9405 76.4067 30.8659C76.3427 30.7859 76.2387 30.7459 76.0947 30.7459C75.9454 30.7459 75.8067 30.8072 75.6787 30.9299C75.5507 31.0525 75.4467 31.2472 75.3667 31.5139C75.2921 31.7752 75.2547 32.1165 75.2547 32.5379L74.9587 32.6179ZM75.0867 29.7059L75.2547 31.4659V35.4659C75.2547 35.6312 75.2814 35.7512 75.3347 35.8259C75.3934 35.9005 75.5107 35.9539 75.6867 35.9859L76.3347 36.0979C76.4734 36.1245 76.5747 36.1725 76.6387 36.2419C76.7081 36.3059 76.7427 36.3992 76.7427 36.5219C76.7427 36.6445 76.6974 36.7432 76.6067 36.8179C76.5214 36.8872 76.3934 36.9219 76.2227 36.9219H72.1427C71.9667 36.9219 71.8387 36.8872 71.7587 36.8179C71.6787 36.7432 71.6387 36.6445 71.6387 36.5219C71.6387 36.4312 71.6627 36.3539 71.7107 36.2899C71.7587 36.2205 71.8387 36.1645 71.9507 36.1219L72.1987 36.0419C72.2841 36.0099 72.3454 35.9539 72.3827 35.8739C72.4254 35.7885 72.4467 35.6525 72.4467 35.4659V31.2739C72.4467 31.1245 72.4254 31.0179 72.3827 30.9539C72.3401 30.8899 72.2734 30.8472 72.1827 30.8259L71.8787 30.7779C71.7774 30.7512 71.7027 30.7112 71.6547 30.6579C71.6121 30.5992 71.5907 30.5245 71.5907 30.4339C71.5907 30.3272 71.6201 30.2419 71.6787 30.1779C71.7427 30.1139 71.8547 30.0525 72.0147 29.9939L73.6307 29.3939C73.9454 29.2712 74.1721 29.1912 74.3107 29.1539C74.4494 29.1165 74.5587 29.0979 74.6387 29.0979C74.7721 29.0979 74.8707 29.1459 74.9347 29.2419C75.0041 29.3325 75.0547 29.4872 75.0867 29.7059ZM84.5569 35.8739V35.6979L84.3569 35.6819V30.6979C84.3569 30.4099 84.2795 30.1832 84.1249 30.0179C83.9755 29.8525 83.7702 29.7699 83.5089 29.7699C83.2795 29.7699 83.0955 29.8205 82.9569 29.9219C82.8235 30.0232 82.7569 30.1512 82.7569 30.3059V31.0979C82.7569 31.4819 82.6262 31.7779 82.3649 31.9859C82.1035 32.1939 81.7355 32.2979 81.2609 32.2979C80.8555 32.2979 80.5515 32.2099 80.3489 32.0339C80.1462 31.8525 80.0449 31.6019 80.0449 31.2819C80.0449 30.9405 80.1915 30.6019 80.4849 30.2659C80.7835 29.9245 81.2262 29.6445 81.8129 29.4259C82.4049 29.2019 83.1382 29.0899 84.0129 29.0899C85.0689 29.0899 85.8529 29.2925 86.3649 29.6979C86.8769 30.1032 87.1329 30.6525 87.1329 31.3459V35.3459C87.1329 35.4685 87.1595 35.5672 87.2129 35.6419C87.2715 35.7112 87.3569 35.7459 87.4689 35.7459C87.5702 35.7459 87.6475 35.7192 87.7009 35.6659C87.7595 35.6125 87.8129 35.5592 87.8609 35.5059C87.8929 35.4685 87.9249 35.4392 87.9569 35.4179C87.9942 35.3912 88.0369 35.3779 88.0849 35.3779C88.1649 35.3779 88.2209 35.4072 88.2529 35.4659C88.2902 35.5192 88.3089 35.5885 88.3089 35.6739C88.3089 35.8819 88.2342 36.0979 88.0849 36.3219C87.9409 36.5459 87.7222 36.7379 87.4289 36.8979C87.1355 37.0525 86.7702 37.1299 86.3329 37.1299C85.7995 37.1299 85.3702 37.0152 85.0449 36.7859C84.7195 36.5512 84.5569 36.2472 84.5569 35.8739ZM79.7329 35.2339C79.7329 34.5405 80.0449 33.9859 80.6689 33.5699C81.2929 33.1539 82.1702 32.9459 83.3009 32.9459C83.6315 32.9459 83.9249 32.9725 84.1809 33.0259C84.4369 33.0739 84.6529 33.1432 84.8289 33.2339L84.6049 33.8259C84.4555 33.7512 84.3089 33.6952 84.1649 33.6579C84.0262 33.6152 83.8715 33.5939 83.7009 33.5939C83.3489 33.5939 83.0715 33.6952 82.8689 33.8979C82.6715 34.1005 82.5729 34.3859 82.5729 34.7539C82.5729 35.1272 82.6635 35.4125 82.8449 35.6099C83.0262 35.8072 83.2609 35.9059 83.5489 35.9059C83.7675 35.9059 83.9755 35.8552 84.1729 35.7539C84.3755 35.6472 84.5409 35.5139 84.6689 35.3539L84.8449 35.8899C84.5729 36.2845 84.1915 36.5912 83.7009 36.8099C83.2155 37.0232 82.6955 37.1299 82.1409 37.1299C81.4209 37.1299 80.8395 36.9539 80.3969 36.6019C79.9542 36.2445 79.7329 35.7885 79.7329 35.2339ZM92.5829 29.6979V35.4659C92.5829 35.6525 92.6015 35.7885 92.6389 35.8739C92.6815 35.9539 92.7455 36.0099 92.8309 36.0419L93.0709 36.1219C93.1829 36.1645 93.2629 36.2205 93.3109 36.2899C93.3642 36.3539 93.3909 36.4312 93.3909 36.5219C93.3909 36.6445 93.3482 36.7432 93.2629 36.8179C93.1829 36.8872 93.0549 36.9219 92.8789 36.9219H89.4709C89.2949 36.9219 89.1669 36.8872 89.0869 36.8179C89.0069 36.7432 88.9669 36.6445 88.9669 36.5219C88.9669 36.4312 88.9909 36.3539 89.0389 36.2899C89.0869 36.2205 89.1669 36.1645 89.2789 36.1219L89.5269 36.0419C89.6122 36.0099 89.6735 35.9539 89.7109 35.8739C89.7535 35.7885 89.7749 35.6525 89.7749 35.4659V31.2499C89.7749 31.1005 89.7535 30.9939 89.7109 30.9299C89.6682 30.8659 89.6015 30.8232 89.5109 30.8019L89.2069 30.7619C89.1055 30.7299 89.0309 30.6872 88.9829 30.6339C88.9402 30.5752 88.9189 30.5005 88.9189 30.4099C88.9189 30.3032 88.9482 30.2205 89.0069 30.1619C89.0655 30.0979 89.1775 30.0339 89.3429 29.9699L90.9989 29.3539C91.2442 29.2579 91.4362 29.1912 91.5749 29.1539C91.7189 29.1165 91.8442 29.0979 91.9509 29.0979C92.1642 29.0979 92.3215 29.1539 92.4229 29.2659C92.5295 29.3779 92.5829 29.5219 92.5829 29.6979ZM91.0069 28.1379C90.4949 28.1379 90.0869 28.0152 89.7829 27.7699C89.4842 27.5192 89.3349 27.1832 89.3349 26.7619C89.3349 26.3459 89.4842 26.0179 89.7829 25.7779C90.0869 25.5325 90.4949 25.4099 91.0069 25.4099C91.5189 25.4099 91.9242 25.5325 92.2229 25.7779C92.5269 26.0232 92.6789 26.3512 92.6789 26.7619C92.6789 27.1832 92.5269 27.5192 92.2229 27.7699C91.9242 28.0152 91.5189 28.1379 91.0069 28.1379ZM94.6234 30.1859L94.2954 30.0739C94.178 30.0312 94.09 29.9779 94.0314 29.9139C93.978 29.8499 93.9514 29.7725 93.9514 29.6819C93.9514 29.5592 93.994 29.4632 94.0794 29.3939C94.17 29.3245 94.2847 29.2899 94.4234 29.2899H94.8954C95.0074 29.2899 95.106 29.2659 95.1914 29.2179C95.2767 29.1699 95.3754 29.0819 95.4874 28.9539L96.5994 27.6739C96.738 27.5192 96.8687 27.4045 96.9914 27.3299C97.1194 27.2552 97.242 27.2179 97.3594 27.2179C97.4874 27.2179 97.5887 27.2605 97.6634 27.3459C97.738 27.4312 97.7754 27.5539 97.7754 27.7139V34.3379C97.7754 34.7219 97.8447 35.0152 97.9834 35.2179C98.1274 35.4152 98.3274 35.5139 98.5834 35.5139C98.7807 35.5139 98.9327 35.4712 99.0394 35.3859C99.1514 35.2952 99.2394 35.1939 99.3034 35.0819C99.3674 34.9645 99.434 34.8605 99.5034 34.7699C99.5727 34.6792 99.6634 34.6312 99.7754 34.6259C99.866 34.6259 99.938 34.6579 99.9914 34.7219C100.045 34.7805 100.071 34.8845 100.071 35.0339C100.066 35.4179 99.9487 35.7672 99.7194 36.0819C99.4954 36.3965 99.1834 36.6472 98.7834 36.8339C98.3887 37.0205 97.9354 37.1139 97.4234 37.1139C96.65 37.1139 96.0474 36.9245 95.6154 36.5459C95.1834 36.1672 94.9674 35.5939 94.9674 34.8259V30.6739C94.9674 30.5299 94.9407 30.4259 94.8874 30.3619C94.834 30.2925 94.746 30.2339 94.6234 30.1859ZM96.7514 30.2339L96.7594 29.2899H99.5354C99.6794 29.2899 99.7914 29.3219 99.8714 29.3859C99.9567 29.4445 99.9994 29.5299 99.9994 29.6419C99.9994 29.8072 99.9167 29.9485 99.7514 30.0659C99.586 30.1779 99.3167 30.2339 98.9434 30.2339H96.7514ZM108.585 32.1459C108.585 32.4659 108.494 32.7139 108.313 32.8899C108.137 33.0659 107.881 33.1539 107.545 33.1539H102.673V32.4419H105.377C105.654 32.4419 105.793 32.3139 105.793 32.0579C105.793 31.3592 105.689 30.8472 105.481 30.5219C105.278 30.1912 105.006 30.0259 104.665 30.0259C104.403 30.0259 104.171 30.1112 103.969 30.2819C103.771 30.4525 103.614 30.7059 103.497 31.0419C103.379 31.3725 103.321 31.7805 103.321 32.2659C103.321 33.2739 103.55 34.0205 104.009 34.5059C104.473 34.9859 105.094 35.2259 105.873 35.2259C106.289 35.2259 106.659 35.1565 106.985 35.0179C107.31 34.8792 107.587 34.6605 107.817 34.3619C107.939 34.2445 108.033 34.1645 108.097 34.1219C108.166 34.0792 108.233 34.0579 108.297 34.0579C108.387 34.0579 108.454 34.1032 108.497 34.1939C108.545 34.2792 108.569 34.3859 108.569 34.5139C108.553 34.9832 108.39 35.4179 108.081 35.8179C107.771 36.2125 107.347 36.5299 106.809 36.7699C106.27 37.0099 105.646 37.1299 104.937 37.1299C104.147 37.1299 103.441 36.9699 102.817 36.6499C102.198 36.3299 101.71 35.8845 101.353 35.3139C100.995 34.7379 100.817 34.0659 100.817 33.2979C100.817 32.4605 100.982 31.7272 101.313 31.0979C101.649 30.4632 102.131 29.9699 102.761 29.6179C103.395 29.2605 104.155 29.0819 105.041 29.0819C105.803 29.0819 106.449 29.2125 106.977 29.4739C107.505 29.7352 107.905 30.0979 108.177 30.5619C108.449 31.0205 108.585 31.5485 108.585 32.1459ZM115.423 35.5619V35.2899L115.327 35.2739V31.2579C115.327 31.1032 115.306 30.9939 115.263 30.9299C115.221 30.8659 115.154 30.8232 115.063 30.8019L114.759 30.7619C114.658 30.7352 114.583 30.6925 114.535 30.6339C114.493 30.5752 114.471 30.5005 114.471 30.4099C114.471 30.3085 114.501 30.2259 114.559 30.1619C114.618 30.0979 114.73 30.0339 114.895 29.9699L116.559 29.3539C116.789 29.2632 116.975 29.1992 117.119 29.1619C117.263 29.1192 117.399 29.0979 117.527 29.0979C117.73 29.0979 117.882 29.1539 117.983 29.2659C118.085 29.3779 118.135 29.5245 118.135 29.7059V35.4659C118.135 35.6525 118.154 35.7885 118.191 35.8739C118.234 35.9539 118.298 36.0099 118.383 36.0419L118.631 36.1219C118.743 36.1645 118.823 36.2205 118.871 36.2899C118.919 36.3539 118.943 36.4312 118.943 36.5219C118.943 36.6445 118.903 36.7432 118.823 36.8179C118.743 36.8872 118.613 36.9219 118.431 36.9219H116.623C116.298 36.9219 116.015 36.7912 115.775 36.5299C115.541 36.2632 115.423 35.9405 115.423 35.5619ZM110.231 34.6579V31.2579C110.231 31.1032 110.21 30.9939 110.167 30.9299C110.125 30.8659 110.058 30.8232 109.967 30.8019L109.671 30.7619C109.565 30.7352 109.487 30.6925 109.439 30.6339C109.397 30.5752 109.375 30.5005 109.375 30.4099C109.375 30.3085 109.405 30.2259 109.463 30.1619C109.527 30.0979 109.639 30.0339 109.799 29.9699L111.463 29.3539C111.703 29.2632 111.893 29.1992 112.031 29.1619C112.175 29.1192 112.301 29.0979 112.407 29.0979C112.621 29.0979 112.781 29.1539 112.887 29.2659C112.994 29.3779 113.047 29.5245 113.047 29.7059V34.2579C113.047 34.6579 113.141 34.9592 113.327 35.1619C113.519 35.3645 113.781 35.4659 114.111 35.4659C114.319 35.4659 114.535 35.4205 114.759 35.3299C114.989 35.2392 115.213 35.1005 115.431 34.9139L115.727 34.6499L116.143 35.0819L115.863 35.3379C115.159 35.9992 114.543 36.4632 114.015 36.7299C113.487 36.9965 112.997 37.1299 112.543 37.1299C111.855 37.1299 111.298 36.9032 110.871 36.4499C110.445 35.9965 110.231 35.3992 110.231 34.6579ZM123.318 32.6179C123.318 31.8285 123.425 31.1725 123.638 30.6499C123.857 30.1219 124.145 29.7299 124.502 29.4739C124.859 29.2125 125.243 29.0819 125.654 29.0819C126.187 29.0819 126.598 29.2392 126.886 29.5539C127.174 29.8632 127.318 30.3219 127.318 30.9299C127.318 31.5165 127.198 31.9512 126.958 32.2339C126.723 32.5165 126.414 32.6579 126.03 32.6579C125.646 32.6579 125.355 32.5565 125.158 32.3539C124.966 32.1512 124.87 31.8712 124.87 31.5139V31.2019C124.865 31.0525 124.83 30.9405 124.766 30.8659C124.702 30.7859 124.598 30.7459 124.454 30.7459C124.305 30.7459 124.166 30.8072 124.038 30.9299C123.91 31.0525 123.806 31.2472 123.726 31.5139C123.651 31.7752 123.614 32.1165 123.614 32.5379L123.318 32.6179ZM123.446 29.7059L123.614 31.4659V35.4659C123.614 35.6312 123.641 35.7512 123.694 35.8259C123.753 35.9005 123.87 35.9539 124.046 35.9859L124.694 36.0979C124.833 36.1245 124.934 36.1725 124.998 36.2419C125.067 36.3059 125.102 36.3992 125.102 36.5219C125.102 36.6445 125.057 36.7432 124.966 36.8179C124.881 36.8872 124.753 36.9219 124.582 36.9219H120.502C120.326 36.9219 120.198 36.8872 120.118 36.8179C120.038 36.7432 119.998 36.6445 119.998 36.5219C119.998 36.4312 120.022 36.3539 120.07 36.2899C120.118 36.2205 120.198 36.1645 120.31 36.1219L120.558 36.0419C120.643 36.0099 120.705 35.9539 120.742 35.8739C120.785 35.7885 120.806 35.6525 120.806 35.4659V31.2739C120.806 31.1245 120.785 31.0179 120.742 30.9539C120.699 30.8899 120.633 30.8472 120.542 30.8259L120.238 30.7779C120.137 30.7512 120.062 30.7112 120.014 30.6579C119.971 30.5992 119.95 30.5245 119.95 30.4339C119.95 30.3272 119.979 30.2419 120.038 30.1779C120.102 30.1139 120.214 30.0525 120.374 29.9939L121.99 29.3939C122.305 29.2712 122.531 29.1912 122.67 29.1539C122.809 29.1165 122.918 29.0979 122.998 29.0979C123.131 29.0979 123.23 29.1459 123.294 29.2419C123.363 29.3325 123.414 29.4872 123.446 29.7059ZM131.524 29.9299C131.183 29.9299 130.922 30.0099 130.74 30.1699C130.559 30.3299 130.468 30.5272 130.468 30.7619C130.468 30.9059 130.498 31.0392 130.556 31.1619C130.62 31.2845 130.746 31.3965 130.932 31.4979C131.124 31.5939 131.41 31.6819 131.788 31.7619C132.69 31.9325 133.38 32.1512 133.86 32.4179C134.34 32.6792 134.671 32.9885 134.852 33.3459C135.034 33.6979 135.124 34.0952 135.124 34.5379C135.124 35.3379 134.842 35.9699 134.276 36.4339C133.716 36.8979 132.895 37.1299 131.812 37.1299C131.434 37.1299 131.127 37.0979 130.892 37.0339C130.663 36.9752 130.476 36.9165 130.332 36.8579C130.188 36.7939 130.06 36.7619 129.948 36.7619C129.826 36.7619 129.724 36.7939 129.644 36.8579C129.564 36.9165 129.484 36.9752 129.404 37.0339C129.33 37.0979 129.234 37.1299 129.116 37.1299C129.01 37.1299 128.927 37.0979 128.868 37.0339C128.81 36.9699 128.756 36.8552 128.708 36.6899L128.236 35.1539C128.167 34.9245 128.146 34.7405 128.172 34.6019C128.204 34.4632 128.29 34.3672 128.428 34.3139C128.572 34.2605 128.698 34.2605 128.804 34.3139C128.911 34.3619 129.012 34.4605 129.108 34.6099C129.354 34.9992 129.61 35.3192 129.876 35.5699C130.148 35.8152 130.431 35.9965 130.724 36.1139C131.023 36.2259 131.33 36.2819 131.644 36.2819C132.05 36.2819 132.354 36.2019 132.556 36.0419C132.759 35.8765 132.86 35.6605 132.86 35.3939C132.86 35.2285 132.818 35.0845 132.732 34.9619C132.647 34.8339 132.484 34.7165 132.244 34.6099C132.004 34.5032 131.647 34.4019 131.172 34.3059C130.447 34.1619 129.868 33.9672 129.436 33.7219C129.004 33.4712 128.695 33.1672 128.508 32.8099C128.327 32.4525 128.236 32.0365 128.236 31.5619C128.236 31.0605 128.367 30.6259 128.628 30.2579C128.89 29.8845 129.252 29.5965 129.716 29.3939C130.18 29.1859 130.711 29.0819 131.308 29.0819C131.698 29.0819 132.007 29.1139 132.236 29.1779C132.471 29.2419 132.66 29.3085 132.804 29.3779C132.954 29.4419 133.092 29.4739 133.22 29.4739C133.354 29.4739 133.463 29.4419 133.548 29.3779C133.639 29.3085 133.727 29.2419 133.812 29.1779C133.898 29.1139 133.996 29.0819 134.108 29.0819C134.21 29.0819 134.292 29.1165 134.356 29.1859C134.426 29.2552 134.474 29.3752 134.5 29.5459L134.82 31.0099C134.863 31.2392 134.868 31.4152 134.836 31.5379C134.81 31.6605 134.73 31.7485 134.596 31.8019C134.458 31.8605 134.335 31.8579 134.228 31.7939C134.122 31.7299 134.012 31.6152 133.9 31.4499C133.548 30.8899 133.164 30.4979 132.748 30.2739C132.338 30.0445 131.93 29.9299 131.524 29.9299ZM63.865 50.7939H66.169C66.505 50.7939 66.7423 50.7272 66.881 50.5939C67.025 50.4605 67.1423 50.2045 67.233 49.8259C67.2756 49.6765 67.337 49.5672 67.417 49.4979C67.497 49.4232 67.5956 49.3859 67.713 49.3859C67.953 49.3805 68.105 49.5139 68.169 49.7859L68.793 52.2499C68.8303 52.4152 68.8276 52.5459 68.785 52.6419C68.7476 52.7379 68.6623 52.8072 68.529 52.8499C68.4063 52.8925 68.289 52.8979 68.177 52.8659C68.0703 52.8285 67.9796 52.7539 67.905 52.6419C67.7396 52.3912 67.5876 52.2019 67.449 52.0739C67.3156 51.9405 67.1663 51.8499 67.001 51.8019C66.8356 51.7539 66.625 51.7299 66.369 51.7299H63.865V50.7939ZM60.769 46.1699C60.769 46.0259 60.8143 45.9165 60.905 45.8419C61.001 45.7619 61.1476 45.7219 61.345 45.7219H67.425C67.6436 45.7219 67.8223 45.6979 67.961 45.6499C68.105 45.5965 68.2383 45.5459 68.361 45.4979C68.489 45.4445 68.633 45.4179 68.793 45.4179C68.985 45.4179 69.1316 45.4739 69.233 45.5859C69.3343 45.6979 69.4223 45.8792 69.497 46.1299L70.161 48.4019C70.209 48.5619 70.2063 48.6952 70.153 48.8019C70.105 48.9085 70.0143 48.9859 69.881 49.0339C69.721 49.0872 69.577 49.0845 69.449 49.0259C69.321 48.9672 69.217 48.8605 69.137 48.7059C68.913 48.2845 68.705 47.9405 68.513 47.6739C68.321 47.4072 68.129 47.2019 67.937 47.0579C67.745 46.9139 67.5396 46.8152 67.321 46.7619C67.1076 46.7032 66.8623 46.6739 66.585 46.6739H65.009V55.0979C65.009 55.3912 65.0863 55.6099 65.241 55.7539C65.3956 55.8979 65.6223 55.9699 65.921 55.9699H66.817C67.1956 55.9699 67.529 55.9085 67.817 55.7859C68.105 55.6632 68.3796 55.4285 68.641 55.0819C68.9076 54.7299 69.1956 54.2205 69.505 53.5539C69.5743 53.4099 69.6623 53.3139 69.769 53.2659C69.881 53.2125 70.0063 53.1992 70.145 53.2259C70.305 53.2525 70.4196 53.3219 70.489 53.4339C70.5583 53.5459 70.569 53.6899 70.521 53.8659L69.801 56.4979C69.7316 56.7379 69.6436 56.9165 69.537 57.0339C69.4356 57.1512 69.2783 57.2099 69.065 57.2099C68.921 57.2099 68.7876 57.1859 68.665 57.1379C68.5476 57.0899 68.417 57.0419 68.273 56.9939C68.129 56.9459 67.9503 56.9219 67.737 56.9219H61.345C61.1476 56.9219 61.001 56.8819 60.905 56.8019C60.8143 56.7219 60.769 56.6125 60.769 56.4739C60.769 56.2392 60.8916 56.0765 61.137 55.9859L61.521 55.8819C61.6543 55.8392 61.753 55.7805 61.817 55.7059C61.8863 55.6259 61.921 55.5219 61.921 55.3939V47.2499C61.921 47.1219 61.8863 47.0205 61.817 46.9459C61.753 46.8659 61.6543 46.8045 61.521 46.7619L61.137 46.6579C60.8916 46.5672 60.769 46.4045 60.769 46.1699ZM74.9579 49.6979V55.4659C74.9579 55.6525 74.9765 55.7859 75.0139 55.8659C75.0565 55.9459 75.1205 56.0045 75.2059 56.0419L75.4379 56.1299C75.6085 56.2099 75.6939 56.3325 75.6939 56.4979C75.6939 56.7805 75.5205 56.9219 75.1739 56.9219H71.8459C71.6699 56.9219 71.5419 56.8872 71.4619 56.8179C71.3819 56.7432 71.3419 56.6445 71.3419 56.5219C71.3419 56.4312 71.3659 56.3539 71.4139 56.2899C71.4619 56.2205 71.5419 56.1645 71.6539 56.1219L71.9019 56.0419C71.9872 56.0099 72.0485 55.9539 72.0859 55.8739C72.1285 55.7885 72.1499 55.6525 72.1499 55.4659V51.2499C72.1499 51.1005 72.1285 50.9939 72.0859 50.9299C72.0432 50.8659 71.9765 50.8232 71.8859 50.8019L71.5819 50.7619C71.4805 50.7299 71.4059 50.6872 71.3579 50.6339C71.3152 50.5752 71.2939 50.5005 71.2939 50.4099C71.2939 50.3032 71.3232 50.2205 71.3819 50.1619C71.4405 50.0979 71.5525 50.0339 71.7179 49.9699L73.3739 49.3539C73.6085 49.2632 73.7952 49.1992 73.9339 49.1619C74.0779 49.1192 74.2165 49.0979 74.3499 49.0979C74.5472 49.0979 74.6965 49.1539 74.7979 49.2659C74.9045 49.3779 74.9579 49.5219 74.9579 49.6979ZM74.6939 51.5619L74.2779 51.1299L74.5579 50.8739C75.2672 50.2072 75.8859 49.7432 76.4139 49.4819C76.9419 49.2152 77.4325 49.0819 77.8859 49.0819C78.5792 49.0819 79.1392 49.3085 79.5659 49.7619C79.9925 50.2099 80.2059 50.8072 80.2059 51.5539V55.4579C80.2059 55.6445 80.2245 55.7805 80.2619 55.8659C80.3045 55.9512 80.3712 56.0099 80.4619 56.0419L80.6939 56.1219C80.8059 56.1645 80.8859 56.2205 80.9339 56.2899C80.9819 56.3539 81.0059 56.4312 81.0059 56.5219C81.0059 56.6445 80.9659 56.7432 80.8859 56.8179C80.8059 56.8872 80.6779 56.9219 80.5019 56.9219H77.1739C76.8272 56.9219 76.6539 56.7805 76.6539 56.4979C76.6539 56.3325 76.7365 56.2099 76.9019 56.1299L77.1419 56.0419C77.2325 56.0045 77.2965 55.9459 77.3339 55.8659C77.3765 55.7805 77.3979 55.6445 77.3979 55.4579V51.9539C77.3979 51.5485 77.2992 51.2472 77.1019 51.0499C76.9099 50.8472 76.6485 50.7459 76.3179 50.7459C76.1099 50.7459 75.8912 50.7912 75.6619 50.8819C75.4325 50.9725 75.2112 51.1112 74.9979 51.2979L74.6939 51.5619ZM87.32 55.9699C88.1573 56.0659 88.8266 56.2045 89.328 56.3859C89.8293 56.5672 90.192 56.8045 90.416 57.0979C90.64 57.3912 90.752 57.7565 90.752 58.1939C90.752 58.9672 90.328 59.6019 89.48 60.0979C88.632 60.5939 87.4 60.8419 85.784 60.8419C84.7653 60.8419 83.9626 60.7699 83.376 60.6259C82.7946 60.4819 82.3813 60.2792 82.136 60.0179C81.8906 59.7619 81.768 59.4632 81.768 59.1219C81.768 58.7272 81.9626 58.3805 82.352 58.0819C82.7413 57.7832 83.4506 57.5725 84.48 57.4499L84.576 57.6899C84.352 57.7485 84.1786 57.8525 84.056 58.0019C83.9386 58.1512 83.88 58.3139 83.88 58.4899C83.88 58.9379 84.056 59.2925 84.408 59.5539C84.76 59.8205 85.3786 59.9539 86.264 59.9539C86.7706 59.9539 87.1706 59.9165 87.464 59.8419C87.7573 59.7725 87.968 59.6659 88.096 59.5219C88.224 59.3832 88.288 59.2152 88.288 59.0179C88.288 58.8419 88.2133 58.6925 88.064 58.5699C87.9146 58.4525 87.6533 58.3485 87.28 58.2579C86.912 58.1672 86.4 58.0765 85.744 57.9859C84.9386 57.8792 84.3226 57.7565 83.896 57.6179C83.4693 57.4792 83.176 57.3112 83.016 57.1139C82.8613 56.9219 82.784 56.6872 82.784 56.4099C82.784 56.1485 82.8586 55.9085 83.008 55.6899C83.1573 55.4659 83.408 55.2792 83.76 55.1299C84.1173 54.9805 84.6106 54.8872 85.24 54.8499L85.36 54.9939C85.2373 55.0419 85.1466 55.0952 85.088 55.1539C85.0346 55.2125 85.008 55.2765 85.008 55.3459C85.008 55.4099 85.048 55.4739 85.128 55.5379C85.208 55.5965 85.4106 55.6605 85.736 55.7299C86.0613 55.7992 86.5893 55.8792 87.32 55.9699ZM87.328 49.9059L87.6 49.2819C87.8773 48.6472 88.2213 48.1752 88.632 47.8659C89.0426 47.5512 89.4826 47.3939 89.952 47.3939C90.3306 47.3939 90.6373 47.5005 90.872 47.7139C91.1066 47.9272 91.224 48.2285 91.224 48.6179C91.224 48.9645 91.136 49.2445 90.96 49.4579C90.7893 49.6659 90.56 49.7699 90.272 49.7699C90.0746 49.7699 89.92 49.7272 89.808 49.6419C89.7013 49.5565 89.608 49.4579 89.528 49.3459C89.4533 49.2339 89.368 49.1379 89.272 49.0579C89.176 48.9725 89.04 48.9299 88.864 48.9299C88.6826 48.9299 88.528 49.0019 88.4 49.1459C88.2773 49.2845 88.1253 49.5565 87.944 49.9619L87.328 49.9059ZM90.072 51.9779C90.072 52.6019 89.9013 53.1512 89.56 53.6259C89.224 54.0952 88.744 54.4632 88.12 54.7299C87.5013 54.9912 86.7626 55.1219 85.904 55.1219C85.088 55.1219 84.3893 54.9965 83.808 54.7459C83.2266 54.4952 82.7813 54.1539 82.472 53.7219C82.168 53.2845 82.016 52.7992 82.016 52.2659C82.016 51.6365 82.184 51.0872 82.52 50.6179C82.8613 50.1432 83.344 49.7752 83.968 49.5139C84.5973 49.2472 85.3386 49.1139 86.192 49.1139C87.0133 49.1139 87.712 49.2392 88.288 49.4899C88.8693 49.7405 89.312 50.0819 89.616 50.5139C89.92 50.9459 90.072 51.4339 90.072 51.9779ZM85.696 49.9059C85.4666 49.9325 85.2826 50.0365 85.144 50.2179C85.0106 50.3939 84.928 50.6472 84.896 50.9779C84.864 51.3032 84.8853 51.7059 84.96 52.1859C85.0346 52.6712 85.1386 53.0765 85.272 53.4019C85.4053 53.7219 85.5653 53.9565 85.752 54.1059C85.9386 54.2499 86.1493 54.3085 86.384 54.2819C86.736 54.2392 86.9733 54.0312 87.096 53.6579C87.224 53.2792 87.232 52.7272 87.12 52.0019C87.0133 51.2712 86.8373 50.7299 86.592 50.3779C86.352 50.0205 86.0533 49.8632 85.696 49.9059ZM96.2912 55.8739V55.6979L96.0912 55.6819V50.6979C96.0912 50.4099 96.0139 50.1832 95.8592 50.0179C95.7099 49.8525 95.5046 49.7699 95.2432 49.7699C95.0139 49.7699 94.8299 49.8205 94.6912 49.9219C94.5579 50.0232 94.4912 50.1512 94.4912 50.3059V51.0979C94.4912 51.4819 94.3606 51.7779 94.0992 51.9859C93.8379 52.1939 93.4699 52.2979 92.9952 52.2979C92.5899 52.2979 92.2859 52.2099 92.0832 52.0339C91.8806 51.8525 91.7792 51.6019 91.7792 51.2819C91.7792 50.9405 91.9259 50.6019 92.2192 50.2659C92.5179 49.9245 92.9606 49.6445 93.5472 49.4259C94.1392 49.2019 94.8726 49.0899 95.7472 49.0899C96.8032 49.0899 97.5872 49.2925 98.0992 49.6979C98.6112 50.1032 98.8672 50.6525 98.8672 51.3459V55.3459C98.8672 55.4685 98.8939 55.5672 98.9472 55.6419C99.0059 55.7112 99.0912 55.7459 99.2032 55.7459C99.3046 55.7459 99.3819 55.7192 99.4352 55.6659C99.4939 55.6125 99.5472 55.5592 99.5952 55.5059C99.6272 55.4685 99.6592 55.4392 99.6912 55.4179C99.7286 55.3912 99.7712 55.3779 99.8192 55.3779C99.8992 55.3779 99.9552 55.4072 99.9872 55.4659C100.025 55.5192 100.043 55.5885 100.043 55.6739C100.043 55.8819 99.9686 56.0979 99.8192 56.3219C99.6752 56.5459 99.4566 56.7379 99.1632 56.8979C98.8699 57.0525 98.5046 57.1299 98.0672 57.1299C97.5339 57.1299 97.1046 57.0152 96.7792 56.7859C96.4539 56.5512 96.2912 56.2472 96.2912 55.8739ZM91.4672 55.2339C91.4672 54.5405 91.7792 53.9859 92.4032 53.5699C93.0272 53.1539 93.9046 52.9459 95.0352 52.9459C95.3659 52.9459 95.6592 52.9725 95.9152 53.0259C96.1712 53.0739 96.3872 53.1432 96.5632 53.2339L96.3392 53.8259C96.1899 53.7512 96.0432 53.6952 95.8992 53.6579C95.7606 53.6152 95.6059 53.5939 95.4352 53.5939C95.0832 53.5939 94.8059 53.6952 94.6032 53.8979C94.4059 54.1005 94.3072 54.3859 94.3072 54.7539C94.3072 55.1272 94.3979 55.4125 94.5792 55.6099C94.7606 55.8072 94.9952 55.9059 95.2832 55.9059C95.5019 55.9059 95.7099 55.8552 95.9072 55.7539C96.1099 55.6472 96.2752 55.5139 96.4032 55.3539L96.5792 55.8899C96.3072 56.2845 95.9259 56.5912 95.4352 56.8099C94.9499 57.0232 94.4299 57.1299 93.8752 57.1299C93.1552 57.1299 92.5739 56.9539 92.1312 56.6019C91.6886 56.2445 91.4672 55.7885 91.4672 55.2339ZM106.101 55.9699C106.939 56.0659 107.608 56.2045 108.109 56.3859C108.611 56.5672 108.973 56.8045 109.197 57.0979C109.421 57.3912 109.533 57.7565 109.533 58.1939C109.533 58.9672 109.109 59.6019 108.261 60.0979C107.413 60.5939 106.181 60.8419 104.565 60.8419C103.547 60.8419 102.744 60.7699 102.157 60.6259C101.576 60.4819 101.163 60.2792 100.917 60.0179C100.672 59.7619 100.549 59.4632 100.549 59.1219C100.549 58.7272 100.744 58.3805 101.133 58.0819C101.523 57.7832 102.232 57.5725 103.261 57.4499L103.357 57.6899C103.133 57.7485 102.96 57.8525 102.837 58.0019C102.72 58.1512 102.661 58.3139 102.661 58.4899C102.661 58.9379 102.837 59.2925 103.189 59.5539C103.541 59.8205 104.16 59.9539 105.045 59.9539C105.552 59.9539 105.952 59.9165 106.245 59.8419C106.539 59.7725 106.749 59.6659 106.877 59.5219C107.005 59.3832 107.069 59.2152 107.069 59.0179C107.069 58.8419 106.995 58.6925 106.845 58.5699C106.696 58.4525 106.435 58.3485 106.061 58.2579C105.693 58.1672 105.181 58.0765 104.525 57.9859C103.72 57.8792 103.104 57.7565 102.677 57.6179C102.251 57.4792 101.957 57.3112 101.797 57.1139C101.643 56.9219 101.565 56.6872 101.565 56.4099C101.565 56.1485 101.64 55.9085 101.789 55.6899C101.939 55.4659 102.189 55.2792 102.541 55.1299C102.899 54.9805 103.392 54.8872 104.021 54.8499L104.141 54.9939C104.019 55.0419 103.928 55.0952 103.869 55.1539C103.816 55.2125 103.789 55.2765 103.789 55.3459C103.789 55.4099 103.829 55.4739 103.909 55.5379C103.989 55.5965 104.192 55.6605 104.517 55.7299C104.843 55.7992 105.371 55.8792 106.101 55.9699ZM106.109 49.9059L106.381 49.2819C106.659 48.6472 107.003 48.1752 107.413 47.8659C107.824 47.5512 108.264 47.3939 108.733 47.3939C109.112 47.3939 109.419 47.5005 109.653 47.7139C109.888 47.9272 110.005 48.2285 110.005 48.6179C110.005 48.9645 109.917 49.2445 109.741 49.4579C109.571 49.6659 109.341 49.7699 109.053 49.7699C108.856 49.7699 108.701 49.7272 108.589 49.6419C108.483 49.5565 108.389 49.4579 108.309 49.3459C108.235 49.2339 108.149 49.1379 108.053 49.0579C107.957 48.9725 107.821 48.9299 107.645 48.9299C107.464 48.9299 107.309 49.0019 107.181 49.1459C107.059 49.2845 106.907 49.5565 106.725 49.9619L106.109 49.9059ZM108.853 51.9779C108.853 52.6019 108.683 53.1512 108.341 53.6259C108.005 54.0952 107.525 54.4632 106.901 54.7299C106.283 54.9912 105.544 55.1219 104.685 55.1219C103.869 55.1219 103.171 54.9965 102.589 54.7459C102.008 54.4952 101.563 54.1539 101.253 53.7219C100.949 53.2845 100.797 52.7992 100.797 52.2659C100.797 51.6365 100.965 51.0872 101.301 50.6179C101.643 50.1432 102.125 49.7752 102.749 49.5139C103.379 49.2472 104.12 49.1139 104.973 49.1139C105.795 49.1139 106.493 49.2392 107.069 49.4899C107.651 49.7405 108.093 50.0819 108.397 50.5139C108.701 50.9459 108.853 51.4339 108.853 51.9779ZM104.477 49.9059C104.248 49.9325 104.064 50.0365 103.925 50.2179C103.792 50.3939 103.709 50.6472 103.677 50.9779C103.645 51.3032 103.667 51.7059 103.741 52.1859C103.816 52.6712 103.92 53.0765 104.053 53.4019C104.187 53.7219 104.347 53.9565 104.533 54.1059C104.72 54.2499 104.931 54.3085 105.165 54.2819C105.517 54.2392 105.755 54.0312 105.877 53.6579C106.005 53.2792 106.013 52.7272 105.901 52.0019C105.795 51.2712 105.619 50.7299 105.373 50.3779C105.133 50.0205 104.835 49.8632 104.477 49.9059ZM117.928 52.1459C117.928 52.4659 117.838 52.7139 117.656 52.8899C117.48 53.0659 117.224 53.1539 116.888 53.1539H112.016V52.4419H114.72C114.998 52.4419 115.136 52.3139 115.136 52.0579C115.136 51.3592 115.032 50.8472 114.824 50.5219C114.622 50.1912 114.35 50.0259 114.008 50.0259C113.747 50.0259 113.515 50.1112 113.312 50.2819C113.115 50.4525 112.958 50.7059 112.84 51.0419C112.723 51.3725 112.664 51.7805 112.664 52.2659C112.664 53.2739 112.894 54.0205 113.352 54.5059C113.816 54.9859 114.438 55.2259 115.216 55.2259C115.632 55.2259 116.003 55.1565 116.328 55.0179C116.654 54.8792 116.931 54.6605 117.16 54.3619C117.283 54.2445 117.376 54.1645 117.44 54.1219C117.51 54.0792 117.576 54.0579 117.64 54.0579C117.731 54.0579 117.798 54.1032 117.84 54.1939C117.888 54.2792 117.912 54.3859 117.912 54.5139C117.896 54.9832 117.734 55.4179 117.424 55.8179C117.115 56.2125 116.691 56.5299 116.152 56.7699C115.614 57.0099 114.99 57.1299 114.28 57.1299C113.491 57.1299 112.784 56.9699 112.16 56.6499C111.542 56.3299 111.054 55.8845 110.696 55.3139C110.339 54.7379 110.16 54.0659 110.16 53.2979C110.16 52.4605 110.326 51.7272 110.656 51.0979C110.992 50.4632 111.475 49.9699 112.104 49.6179C112.739 49.2605 113.499 49.0819 114.384 49.0819C115.147 49.0819 115.792 49.2125 116.32 49.4739C116.848 49.7352 117.248 50.0979 117.52 50.5619C117.792 51.0205 117.928 51.5485 117.928 52.1459ZM114.392 46.4019C114.568 46.0019 114.771 45.6899 115 45.4659C115.23 45.2419 115.526 45.1539 115.888 45.2019C116.208 45.2339 116.448 45.3645 116.608 45.5939C116.768 45.8232 116.832 46.0632 116.8 46.3139C116.763 46.5912 116.654 46.8285 116.472 47.0259C116.291 47.2232 116.032 47.4125 115.696 47.5939L114.272 48.5059C114.176 48.5485 114.078 48.5699 113.976 48.5699C113.875 48.5645 113.792 48.5325 113.728 48.4739C113.654 48.4045 113.624 48.3299 113.64 48.2499C113.656 48.1645 113.688 48.0765 113.736 47.9859L114.392 46.4019ZM122.399 49.9299C122.058 49.9299 121.797 50.0099 121.615 50.1699C121.434 50.3299 121.343 50.5272 121.343 50.7619C121.343 50.9059 121.373 51.0392 121.431 51.1619C121.495 51.2845 121.621 51.3965 121.807 51.4979C121.999 51.5939 122.285 51.6819 122.663 51.7619C123.565 51.9325 124.255 52.1512 124.735 52.4179C125.215 52.6792 125.546 52.9885 125.727 53.3459C125.909 53.6979 125.999 54.0952 125.999 54.5379C125.999 55.3379 125.717 55.9699 125.151 56.4339C124.591 56.8979 123.77 57.1299 122.687 57.1299C122.309 57.1299 122.002 57.0979 121.767 57.0339C121.538 56.9752 121.351 56.9165 121.207 56.8579C121.063 56.7939 120.935 56.7619 120.823 56.7619C120.701 56.7619 120.599 56.7939 120.519 56.8579C120.439 56.9165 120.359 56.9752 120.279 57.0339C120.205 57.0979 120.109 57.1299 119.991 57.1299C119.885 57.1299 119.802 57.0979 119.743 57.0339C119.685 56.9699 119.631 56.8552 119.583 56.6899L119.111 55.1539C119.042 54.9245 119.021 54.7405 119.047 54.6019C119.079 54.4632 119.165 54.3672 119.303 54.3139C119.447 54.2605 119.573 54.2605 119.679 54.3139C119.786 54.3619 119.887 54.4605 119.983 54.6099C120.229 54.9992 120.485 55.3192 120.751 55.5699C121.023 55.8152 121.306 55.9965 121.599 56.1139C121.898 56.2259 122.205 56.2819 122.519 56.2819C122.925 56.2819 123.229 56.2019 123.431 56.0419C123.634 55.8765 123.735 55.6605 123.735 55.3939C123.735 55.2285 123.693 55.0845 123.607 54.9619C123.522 54.8339 123.359 54.7165 123.119 54.6099C122.879 54.5032 122.522 54.4019 122.047 54.3059C121.322 54.1619 120.743 53.9672 120.311 53.7219C119.879 53.4712 119.57 53.1672 119.383 52.8099C119.202 52.4525 119.111 52.0365 119.111 51.5619C119.111 51.0605 119.242 50.6259 119.503 50.2579C119.765 49.8845 120.127 49.5965 120.591 49.3939C121.055 49.1859 121.586 49.0819 122.183 49.0819C122.573 49.0819 122.882 49.1139 123.111 49.1779C123.346 49.2419 123.535 49.3085 123.679 49.3779C123.829 49.4419 123.967 49.4739 124.095 49.4739C124.229 49.4739 124.338 49.4419 124.423 49.3779C124.514 49.3085 124.602 49.2419 124.687 49.1779C124.773 49.1139 124.871 49.0819 124.983 49.0819C125.085 49.0819 125.167 49.1165 125.231 49.1859C125.301 49.2552 125.349 49.3752 125.375 49.5459L125.695 51.0099C125.738 51.2392 125.743 51.4152 125.711 51.5379C125.685 51.6605 125.605 51.7485 125.471 51.8019C125.333 51.8605 125.21 51.8579 125.103 51.7939C124.997 51.7299 124.887 51.6152 124.775 51.4499C124.423 50.8899 124.039 50.4979 123.623 50.2739C123.213 50.0445 122.805 49.9299 122.399 49.9299Z" fill="#1A3A52"/>
</svg>
